<?xml version="1.0" encoding="UTF-8" ?>
<svg version="1.1" width="512" height="512" xmlns="http://www.w3.org/2000/svg" shape-rendering="crispEdges">
<rect x="0" y="0" width="8" height="8" fill="#FFFFFF" />
<rect x="8" y="0" width="8" height="8" fill="#FFFFFF" />
<rect x="16" y="0" width="8" height="8" fill="#FFFFFF" />
<rect x="24" y="0" width="8" height="8" fill="#FFFFFF" />
<rect x="48" y="0" width="8" height="8" fill="#FFFFFF" />
<rect x="56" y="0" width="8" height="8" fill="#FFFFFF" />
<rect x="64" y="0" width="8" height="8" fill="#FFFFFF" />
<rect x="72" y="0" width="8" height="8" fill="#FFFFFF" />
<rect x="96" y="0" width="8" height="8" fill="#FFFFFF" />
<rect x="104" y="0" width="8" height="8" fill="#FFFFFF" />
<rect x="112" y="0" width="8" height="8" fill="#FFFFFF" />
<rect x="120" y="0" width="8" height="8" fill="#FFFFFF" />
<rect x="144" y="0" width="8" height="8" fill="#FFFFFF" />
<rect x="152" y="0" width="8" height="8" fill="#FFFFFF" />
<rect x="160" y="0" width="8" height="8" fill="#FFFFFF" />
<rect x="168" y="0" width="8" height="8" fill="#FFFFFF" />
<rect x="192" y="0" width="8" height="8" fill="#FFFFFF" />
<rect x="200" y="0" width="8" height="8" fill="#FFFFFF" />
<rect x="208" y="0" width="8" height="8" fill="#FFFFFF" />
<rect x="216" y="0" width="8" height="8" fill="#FFFFFF" />
<rect x="240" y="0" width="8" height="8" fill="#FFFFFF" />
<rect x="248" y="0" width="8" height="8" fill="#FFFFFF" />
<rect x="256" y="0" width="8" height="8" fill="#FFFFFF" />
<rect x="264" y="0" width="8" height="8" fill="#FFFFFF" />
<rect x="288" y="0" width="8" height="8" fill="#FFFFFF" />
<rect x="296" y="0" width="8" height="8" fill="#FFFFFF" />
<rect x="304" y="0" width="8" height="8" fill="#FFFFFF" />
<rect x="312" y="0" width="8" height="8" fill="#FFFFFF" />
<rect x="336" y="0" width="8" height="8" fill="#FFFFFF" />
<rect x="344" y="0" width="8" height="8" fill="#FFFFFF" />
<rect x="352" y="0" width="8" height="8" fill="#FFFFFF" />
<rect x="360" y="0" width="8" height="8" fill="#FFFFFF" />
<rect x="384" y="0" width="8" height="8" fill="#FFFFFF" />
<rect x="392" y="0" width="8" height="8" fill="#FFFFFF" />
<rect x="400" y="0" width="8" height="8" fill="#FFFFFF" />
<rect x="408" y="0" width="8" height="8" fill="#FFFFFF" />
<rect x="432" y="0" width="8" height="8" fill="#FFFFFF" />
<rect x="440" y="0" width="8" height="8" fill="#FFFFFF" />
<rect x="448" y="0" width="8" height="8" fill="#FFFFFF" />
<rect x="456" y="0" width="8" height="8" fill="#FFFFFF" />
<rect x="480" y="0" width="8" height="8" fill="#FFFFFF" />
<rect x="488" y="0" width="8" height="8" fill="#FFFFFF" />
<rect x="496" y="0" width="8" height="8" fill="#FFFFFF" />
<rect x="504" y="0" width="8" height="8" fill="#FFFFFF" />
<rect x="0" y="8" width="8" height="8" fill="#FFFFFF" />
<rect x="8" y="8" width="8" height="8" fill="#FFFFFF" />
<rect x="16" y="8" width="8" height="8" fill="#FFFFFF" />
<rect x="24" y="8" width="8" height="8" fill="#FFFFFF" />
<rect x="48" y="8" width="8" height="8" fill="#FFFFFF" />
<rect x="56" y="8" width="8" height="8" fill="#FFFFFF" />
<rect x="64" y="8" width="8" height="8" fill="#FFFFFF" />
<rect x="72" y="8" width="8" height="8" fill="#FFFFFF" />
<rect x="96" y="8" width="8" height="8" fill="#FFFFFF" />
<rect x="104" y="8" width="8" height="8" fill="#FFFFFF" />
<rect x="112" y="8" width="8" height="8" fill="#FFFFFF" />
<rect x="120" y="8" width="8" height="8" fill="#FFFFFF" />
<rect x="144" y="8" width="8" height="8" fill="#FFFFFF" />
<rect x="152" y="8" width="8" height="8" fill="#FFFFFF" />
<rect x="160" y="8" width="8" height="8" fill="#FFFFFF" />
<rect x="168" y="8" width="8" height="8" fill="#FFFFFF" />
<rect x="192" y="8" width="8" height="8" fill="#FFFFFF" />
<rect x="200" y="8" width="8" height="8" fill="#FFFFFF" />
<rect x="208" y="8" width="8" height="8" fill="#FFFFFF" />
<rect x="216" y="8" width="8" height="8" fill="#FFFFFF" />
<rect x="240" y="8" width="8" height="8" fill="#FFFFFF" />
<rect x="248" y="8" width="8" height="8" fill="#FFFFFF" />
<rect x="256" y="8" width="8" height="8" fill="#FFFFFF" />
<rect x="264" y="8" width="8" height="8" fill="#FFFFFF" />
<rect x="288" y="8" width="8" height="8" fill="#FFFFFF" />
<rect x="296" y="8" width="8" height="8" fill="#FFFFFF" />
<rect x="304" y="8" width="8" height="8" fill="#FFFFFF" />
<rect x="312" y="8" width="8" height="8" fill="#FFFFFF" />
<rect x="336" y="8" width="8" height="8" fill="#FFFFFF" />
<rect x="344" y="8" width="8" height="8" fill="#FFFFFF" />
<rect x="352" y="8" width="8" height="8" fill="#FFFFFF" />
<rect x="360" y="8" width="8" height="8" fill="#FFFFFF" />
<rect x="384" y="8" width="8" height="8" fill="#FFFFFF" />
<rect x="392" y="8" width="8" height="8" fill="#FFFFFF" />
<rect x="400" y="8" width="8" height="8" fill="#FFFFFF" />
<rect x="408" y="8" width="8" height="8" fill="#FFFFFF" />
<rect x="432" y="8" width="8" height="8" fill="#FFFFFF" />
<rect x="440" y="8" width="8" height="8" fill="#FFFFFF" />
<rect x="448" y="8" width="8" height="8" fill="#FFFFFF" />
<rect x="456" y="8" width="8" height="8" fill="#FFFFFF" />
<rect x="480" y="8" width="8" height="8" fill="#FFFFFF" />
<rect x="488" y="8" width="8" height="8" fill="#FFFFFF" />
<rect x="496" y="8" width="8" height="8" fill="#FFFFFF" />
<rect x="504" y="8" width="8" height="8" fill="#FFFFFF" />
<rect x="0" y="16" width="8" height="8" fill="#FFFFFF" />
<rect x="8" y="16" width="8" height="8" fill="#FFFFFF" />
<rect x="496" y="16" width="8" height="8" fill="#FFFFFF" />
<rect x="504" y="16" width="8" height="8" fill="#FFFFFF" />
<rect x="0" y="24" width="8" height="8" fill="#FFFFFF" />
<rect x="8" y="24" width="8" height="8" fill="#FFFFFF" />
<rect x="496" y="24" width="8" height="8" fill="#FFFFFF" />
<rect x="504" y="24" width="8" height="8" fill="#FFFFFF" />
<rect x="0" y="48" width="8" height="8" fill="#FFFFFF" />
<rect x="8" y="48" width="8" height="8" fill="#FFFFFF" />
<rect x="496" y="48" width="8" height="8" fill="#FFFFFF" />
<rect x="504" y="48" width="8" height="8" fill="#FFFFFF" />
<rect x="0" y="56" width="8" height="8" fill="#FFFFFF" />
<rect x="8" y="56" width="8" height="8" fill="#FFFFFF" />
<rect x="496" y="56" width="8" height="8" fill="#FFFFFF" />
<rect x="504" y="56" width="8" height="8" fill="#FFFFFF" />
<rect x="0" y="64" width="8" height="8" fill="#FFFFFF" />
<rect x="8" y="64" width="8" height="8" fill="#FFFFFF" />
<rect x="496" y="64" width="8" height="8" fill="#FFFFFF" />
<rect x="504" y="64" width="8" height="8" fill="#FFFFFF" />
<rect x="0" y="72" width="8" height="8" fill="#FFFFFF" />
<rect x="8" y="72" width="8" height="8" fill="#FFFFFF" />
<rect x="496" y="72" width="8" height="8" fill="#FFFFFF" />
<rect x="504" y="72" width="8" height="8" fill="#FFFFFF" />
<rect x="0" y="96" width="8" height="8" fill="#FFFFFF" />
<rect x="8" y="96" width="8" height="8" fill="#FFFFFF" />
<rect x="496" y="96" width="8" height="8" fill="#FFFFFF" />
<rect x="504" y="96" width="8" height="8" fill="#FFFFFF" />
<rect x="0" y="104" width="8" height="8" fill="#FFFFFF" />
<rect x="8" y="104" width="8" height="8" fill="#FFFFFF" />
<rect x="496" y="104" width="8" height="8" fill="#FFFFFF" />
<rect x="504" y="104" width="8" height="8" fill="#FFFFFF" />
<rect x="0" y="112" width="8" height="8" fill="#FFFFFF" />
<rect x="8" y="112" width="8" height="8" fill="#FFFFFF" />
<rect x="496" y="112" width="8" height="8" fill="#FFFFFF" />
<rect x="504" y="112" width="8" height="8" fill="#FFFFFF" />
<rect x="0" y="120" width="8" height="8" fill="#FFFFFF" />
<rect x="8" y="120" width="8" height="8" fill="#FFFFFF" />
<rect x="496" y="120" width="8" height="8" fill="#FFFFFF" />
<rect x="504" y="120" width="8" height="8" fill="#FFFFFF" />
<rect x="0" y="144" width="8" height="8" fill="#FFFFFF" />
<rect x="8" y="144" width="8" height="8" fill="#FFFFFF" />
<rect x="496" y="144" width="8" height="8" fill="#FFFFFF" />
<rect x="504" y="144" width="8" height="8" fill="#FFFFFF" />
<rect x="0" y="152" width="8" height="8" fill="#FFFFFF" />
<rect x="8" y="152" width="8" height="8" fill="#FFFFFF" />
<rect x="496" y="152" width="8" height="8" fill="#FFFFFF" />
<rect x="504" y="152" width="8" height="8" fill="#FFFFFF" />
<rect x="0" y="160" width="8" height="8" fill="#FFFFFF" />
<rect x="8" y="160" width="8" height="8" fill="#FFFFFF" />
<rect x="496" y="160" width="8" height="8" fill="#FFFFFF" />
<rect x="504" y="160" width="8" height="8" fill="#FFFFFF" />
<rect x="0" y="168" width="8" height="8" fill="#FFFFFF" />
<rect x="8" y="168" width="8" height="8" fill="#FFFFFF" />
<rect x="496" y="168" width="8" height="8" fill="#FFFFFF" />
<rect x="504" y="168" width="8" height="8" fill="#FFFFFF" />
<rect x="0" y="192" width="8" height="8" fill="#FFFFFF" />
<rect x="8" y="192" width="8" height="8" fill="#FFFFFF" />
<rect x="496" y="192" width="8" height="8" fill="#FFFFFF" />
<rect x="504" y="192" width="8" height="8" fill="#FFFFFF" />
<rect x="0" y="200" width="8" height="8" fill="#FFFFFF" />
<rect x="8" y="200" width="8" height="8" fill="#FFFFFF" />
<rect x="496" y="200" width="8" height="8" fill="#FFFFFF" />
<rect x="504" y="200" width="8" height="8" fill="#FFFFFF" />
<rect x="0" y="208" width="8" height="8" fill="#FFFFFF" />
<rect x="8" y="208" width="8" height="8" fill="#FFFFFF" />
<rect x="496" y="208" width="8" height="8" fill="#FFFFFF" />
<rect x="504" y="208" width="8" height="8" fill="#FFFFFF" />
<rect x="0" y="216" width="8" height="8" fill="#FFFFFF" />
<rect x="8" y="216" width="8" height="8" fill="#FFFFFF" />
<rect x="496" y="216" width="8" height="8" fill="#FFFFFF" />
<rect x="504" y="216" width="8" height="8" fill="#FFFFFF" />
<rect x="0" y="240" width="8" height="8" fill="#FFFFFF" />
<rect x="8" y="240" width="8" height="8" fill="#FFFFFF" />
<rect x="496" y="240" width="8" height="8" fill="#FFFFFF" />
<rect x="504" y="240" width="8" height="8" fill="#FFFFFF" />
<rect x="0" y="248" width="8" height="8" fill="#FFFFFF" />
<rect x="8" y="248" width="8" height="8" fill="#FFFFFF" />
<rect x="496" y="248" width="8" height="8" fill="#FFFFFF" />
<rect x="504" y="248" width="8" height="8" fill="#FFFFFF" />
<rect x="0" y="256" width="8" height="8" fill="#FFFFFF" />
<rect x="8" y="256" width="8" height="8" fill="#FFFFFF" />
<rect x="496" y="256" width="8" height="8" fill="#FFFFFF" />
<rect x="504" y="256" width="8" height="8" fill="#FFFFFF" />
<rect x="0" y="264" width="8" height="8" fill="#FFFFFF" />
<rect x="8" y="264" width="8" height="8" fill="#FFFFFF" />
<rect x="496" y="264" width="8" height="8" fill="#FFFFFF" />
<rect x="504" y="264" width="8" height="8" fill="#FFFFFF" />
<rect x="0" y="288" width="8" height="8" fill="#FFFFFF" />
<rect x="8" y="288" width="8" height="8" fill="#FFFFFF" />
<rect x="496" y="288" width="8" height="8" fill="#FFFFFF" />
<rect x="504" y="288" width="8" height="8" fill="#FFFFFF" />
<rect x="0" y="296" width="8" height="8" fill="#FFFFFF" />
<rect x="8" y="296" width="8" height="8" fill="#FFFFFF" />
<rect x="496" y="296" width="8" height="8" fill="#FFFFFF" />
<rect x="504" y="296" width="8" height="8" fill="#FFFFFF" />
<rect x="0" y="304" width="8" height="8" fill="#FFFFFF" />
<rect x="8" y="304" width="8" height="8" fill="#FFFFFF" />
<rect x="496" y="304" width="8" height="8" fill="#FFFFFF" />
<rect x="504" y="304" width="8" height="8" fill="#FFFFFF" />
<rect x="0" y="312" width="8" height="8" fill="#FFFFFF" />
<rect x="8" y="312" width="8" height="8" fill="#FFFFFF" />
<rect x="496" y="312" width="8" height="8" fill="#FFFFFF" />
<rect x="504" y="312" width="8" height="8" fill="#FFFFFF" />
<rect x="0" y="336" width="8" height="8" fill="#FFFFFF" />
<rect x="8" y="336" width="8" height="8" fill="#FFFFFF" />
<rect x="496" y="336" width="8" height="8" fill="#FFFFFF" />
<rect x="504" y="336" width="8" height="8" fill="#FFFFFF" />
<rect x="0" y="344" width="8" height="8" fill="#FFFFFF" />
<rect x="8" y="344" width="8" height="8" fill="#FFFFFF" />
<rect x="496" y="344" width="8" height="8" fill="#FFFFFF" />
<rect x="504" y="344" width="8" height="8" fill="#FFFFFF" />
<rect x="0" y="352" width="8" height="8" fill="#FFFFFF" />
<rect x="8" y="352" width="8" height="8" fill="#FFFFFF" />
<rect x="496" y="352" width="8" height="8" fill="#FFFFFF" />
<rect x="504" y="352" width="8" height="8" fill="#FFFFFF" />
<rect x="0" y="360" width="8" height="8" fill="#FFFFFF" />
<rect x="8" y="360" width="8" height="8" fill="#FFFFFF" />
<rect x="496" y="360" width="8" height="8" fill="#FFFFFF" />
<rect x="504" y="360" width="8" height="8" fill="#FFFFFF" />
<rect x="0" y="384" width="8" height="8" fill="#FFFFFF" />
<rect x="8" y="384" width="8" height="8" fill="#FFFFFF" />
<rect x="496" y="384" width="8" height="8" fill="#FFFFFF" />
<rect x="504" y="384" width="8" height="8" fill="#FFFFFF" />
<rect x="0" y="392" width="8" height="8" fill="#FFFFFF" />
<rect x="8" y="392" width="8" height="8" fill="#FFFFFF" />
<rect x="496" y="392" width="8" height="8" fill="#FFFFFF" />
<rect x="504" y="392" width="8" height="8" fill="#FFFFFF" />
<rect x="0" y="400" width="8" height="8" fill="#FFFFFF" />
<rect x="8" y="400" width="8" height="8" fill="#FFFFFF" />
<rect x="496" y="400" width="8" height="8" fill="#FFFFFF" />
<rect x="504" y="400" width="8" height="8" fill="#FFFFFF" />
<rect x="0" y="408" width="8" height="8" fill="#FFFFFF" />
<rect x="8" y="408" width="8" height="8" fill="#FFFFFF" />
<rect x="496" y="408" width="8" height="8" fill="#FFFFFF" />
<rect x="504" y="408" width="8" height="8" fill="#FFFFFF" />
<rect x="0" y="432" width="8" height="8" fill="#FFFFFF" />
<rect x="8" y="432" width="8" height="8" fill="#FFFFFF" />
<rect x="496" y="432" width="8" height="8" fill="#FFFFFF" />
<rect x="504" y="432" width="8" height="8" fill="#FFFFFF" />
<rect x="0" y="440" width="8" height="8" fill="#FFFFFF" />
<rect x="8" y="440" width="8" height="8" fill="#FFFFFF" />
<rect x="496" y="440" width="8" height="8" fill="#FFFFFF" />
<rect x="504" y="440" width="8" height="8" fill="#FFFFFF" />
<rect x="0" y="448" width="8" height="8" fill="#FFFFFF" />
<rect x="8" y="448" width="8" height="8" fill="#FFFFFF" />
<rect x="496" y="448" width="8" height="8" fill="#FFFFFF" />
<rect x="504" y="448" width="8" height="8" fill="#FFFFFF" />
<rect x="0" y="456" width="8" height="8" fill="#FFFFFF" />
<rect x="8" y="456" width="8" height="8" fill="#FFFFFF" />
<rect x="496" y="456" width="8" height="8" fill="#FFFFFF" />
<rect x="504" y="456" width="8" height="8" fill="#FFFFFF" />
<rect x="0" y="480" width="8" height="8" fill="#FFFFFF" />
<rect x="8" y="480" width="8" height="8" fill="#FFFFFF" />
<rect x="496" y="480" width="8" height="8" fill="#FFFFFF" />
<rect x="504" y="480" width="8" height="8" fill="#FFFFFF" />
<rect x="0" y="488" width="8" height="8" fill="#FFFFFF" />
<rect x="8" y="488" width="8" height="8" fill="#FFFFFF" />
<rect x="496" y="488" width="8" height="8" fill="#FFFFFF" />
<rect x="504" y="488" width="8" height="8" fill="#FFFFFF" />
<rect x="0" y="496" width="8" height="8" fill="#FFFFFF" />
<rect x="8" y="496" width="8" height="8" fill="#FFFFFF" />
<rect x="16" y="496" width="8" height="8" fill="#FFFFFF" />
<rect x="24" y="496" width="8" height="8" fill="#FFFFFF" />
<rect x="48" y="496" width="8" height="8" fill="#FFFFFF" />
<rect x="56" y="496" width="8" height="8" fill="#FFFFFF" />
<rect x="64" y="496" width="8" height="8" fill="#FFFFFF" />
<rect x="72" y="496" width="8" height="8" fill="#FFFFFF" />
<rect x="96" y="496" width="8" height="8" fill="#FFFFFF" />
<rect x="104" y="496" width="8" height="8" fill="#FFFFFF" />
<rect x="112" y="496" width="8" height="8" fill="#FFFFFF" />
<rect x="120" y="496" width="8" height="8" fill="#FFFFFF" />
<rect x="144" y="496" width="8" height="8" fill="#FFFFFF" />
<rect x="152" y="496" width="8" height="8" fill="#FFFFFF" />
<rect x="160" y="496" width="8" height="8" fill="#FFFFFF" />
<rect x="168" y="496" width="8" height="8" fill="#FFFFFF" />
<rect x="192" y="496" width="8" height="8" fill="#FFFFFF" />
<rect x="200" y="496" width="8" height="8" fill="#FFFFFF" />
<rect x="208" y="496" width="8" height="8" fill="#FFFFFF" />
<rect x="216" y="496" width="8" height="8" fill="#FFFFFF" />
<rect x="240" y="496" width="8" height="8" fill="#FFFFFF" />
<rect x="248" y="496" width="8" height="8" fill="#FFFFFF" />
<rect x="256" y="496" width="8" height="8" fill="#FFFFFF" />
<rect x="264" y="496" width="8" height="8" fill="#FFFFFF" />
<rect x="288" y="496" width="8" height="8" fill="#FFFFFF" />
<rect x="296" y="496" width="8" height="8" fill="#FFFFFF" />
<rect x="304" y="496" width="8" height="8" fill="#FFFFFF" />
<rect x="312" y="496" width="8" height="8" fill="#FFFFFF" />
<rect x="336" y="496" width="8" height="8" fill="#FFFFFF" />
<rect x="344" y="496" width="8" height="8" fill="#FFFFFF" />
<rect x="352" y="496" width="8" height="8" fill="#FFFFFF" />
<rect x="360" y="496" width="8" height="8" fill="#FFFFFF" />
<rect x="384" y="496" width="8" height="8" fill="#FFFFFF" />
<rect x="392" y="496" width="8" height="8" fill="#FFFFFF" />
<rect x="400" y="496" width="8" height="8" fill="#FFFFFF" />
<rect x="408" y="496" width="8" height="8" fill="#FFFFFF" />
<rect x="432" y="496" width="8" height="8" fill="#FFFFFF" />
<rect x="440" y="496" width="8" height="8" fill="#FFFFFF" />
<rect x="448" y="496" width="8" height="8" fill="#FFFFFF" />
<rect x="456" y="496" width="8" height="8" fill="#FFFFFF" />
<rect x="480" y="496" width="8" height="8" fill="#FFFFFF" />
<rect x="488" y="496" width="8" height="8" fill="#FFFFFF" />
<rect x="496" y="496" width="8" height="8" fill="#FFFFFF" />
<rect x="504" y="496" width="8" height="8" fill="#FFFFFF" />
<rect x="0" y="504" width="8" height="8" fill="#FFFFFF" />
<rect x="8" y="504" width="8" height="8" fill="#FFFFFF" />
<rect x="16" y="504" width="8" height="8" fill="#FFFFFF" />
<rect x="24" y="504" width="8" height="8" fill="#FFFFFF" />
<rect x="48" y="504" width="8" height="8" fill="#FFFFFF" />
<rect x="56" y="504" width="8" height="8" fill="#FFFFFF" />
<rect x="64" y="504" width="8" height="8" fill="#FFFFFF" />
<rect x="72" y="504" width="8" height="8" fill="#FFFFFF" />
<rect x="96" y="504" width="8" height="8" fill="#FFFFFF" />
<rect x="104" y="504" width="8" height="8" fill="#FFFFFF" />
<rect x="112" y="504" width="8" height="8" fill="#FFFFFF" />
<rect x="120" y="504" width="8" height="8" fill="#FFFFFF" />
<rect x="144" y="504" width="8" height="8" fill="#FFFFFF" />
<rect x="152" y="504" width="8" height="8" fill="#FFFFFF" />
<rect x="160" y="504" width="8" height="8" fill="#FFFFFF" />
<rect x="168" y="504" width="8" height="8" fill="#FFFFFF" />
<rect x="192" y="504" width="8" height="8" fill="#FFFFFF" />
<rect x="200" y="504" width="8" height="8" fill="#FFFFFF" />
<rect x="208" y="504" width="8" height="8" fill="#FFFFFF" />
<rect x="216" y="504" width="8" height="8" fill="#FFFFFF" />
<rect x="240" y="504" width="8" height="8" fill="#FFFFFF" />
<rect x="248" y="504" width="8" height="8" fill="#FFFFFF" />
<rect x="256" y="504" width="8" height="8" fill="#FFFFFF" />
<rect x="264" y="504" width="8" height="8" fill="#FFFFFF" />
<rect x="288" y="504" width="8" height="8" fill="#FFFFFF" />
<rect x="296" y="504" width="8" height="8" fill="#FFFFFF" />
<rect x="304" y="504" width="8" height="8" fill="#FFFFFF" />
<rect x="312" y="504" width="8" height="8" fill="#FFFFFF" />
<rect x="336" y="504" width="8" height="8" fill="#FFFFFF" />
<rect x="344" y="504" width="8" height="8" fill="#FFFFFF" />
<rect x="352" y="504" width="8" height="8" fill="#FFFFFF" />
<rect x="360" y="504" width="8" height="8" fill="#FFFFFF" />
<rect x="384" y="504" width="8" height="8" fill="#FFFFFF" />
<rect x="392" y="504" width="8" height="8" fill="#FFFFFF" />
<rect x="400" y="504" width="8" height="8" fill="#FFFFFF" />
<rect x="408" y="504" width="8" height="8" fill="#FFFFFF" />
<rect x="432" y="504" width="8" height="8" fill="#FFFFFF" />
<rect x="440" y="504" width="8" height="8" fill="#FFFFFF" />
<rect x="448" y="504" width="8" height="8" fill="#FFFFFF" />
<rect x="456" y="504" width="8" height="8" fill="#FFFFFF" />
<rect x="480" y="504" width="8" height="8" fill="#FFFFFF" />
<rect x="488" y="504" width="8" height="8" fill="#FFFFFF" />
<rect x="496" y="504" width="8" height="8" fill="#FFFFFF" />
<rect x="504" y="504" width="8" height="8" fill="#FFFFFF" />
</svg>