<?xml version="1.0" encoding="UTF-8" ?>
<svg version="1.1" width="512" height="512" xmlns="http://www.w3.org/2000/svg" shape-rendering="crispEdges">
<rect x="32" y="16" width="8" height="8" fill="#FFEDD0" />
<rect x="40" y="16" width="8" height="8" fill="#FFEDD0" />
<rect x="48" y="16" width="8" height="8" fill="#FFEDD0" />
<rect x="56" y="16" width="8" height="8" fill="#FFEDD0" />
<rect x="64" y="16" width="8" height="8" fill="#FFEDD0" />
<rect x="72" y="16" width="8" height="8" fill="#FFEDD0" />
<rect x="32" y="24" width="8" height="8" fill="#FFEDD0" />
<rect x="40" y="24" width="8" height="8" fill="#FFEDD0" />
<rect x="48" y="24" width="8" height="8" fill="#FFEDD0" />
<rect x="56" y="24" width="8" height="8" fill="#FFEDD0" />
<rect x="64" y="24" width="8" height="8" fill="#FFEDD0" />
<rect x="72" y="24" width="8" height="8" fill="#FFEDD0" />
<rect x="16" y="32" width="8" height="8" fill="#FFEDD0" />
<rect x="24" y="32" width="8" height="8" fill="#FFEDD0" />
<rect x="32" y="32" width="8" height="8" fill="#FFEDD0" />
<rect x="40" y="32" width="8" height="8" fill="#FFEDD0" />
<rect x="48" y="32" width="8" height="8" fill="#FFEDD0" />
<rect x="56" y="32" width="8" height="8" fill="#FFEDD0" />
<rect x="64" y="32" width="8" height="8" fill="#FFEDD0" />
<rect x="72" y="32" width="8" height="8" fill="#FFEDD0" />
<rect x="80" y="32" width="8" height="8" fill="#FFEDD0" />
<rect x="88" y="32" width="8" height="8" fill="#FFEDD0" />
<rect x="16" y="40" width="8" height="8" fill="#FFEDD0" />
<rect x="24" y="40" width="8" height="8" fill="#FFEDD0" />
<rect x="32" y="40" width="8" height="8" fill="#FFEDD0" />
<rect x="40" y="40" width="8" height="8" fill="#FFEDD0" />
<rect x="48" y="40" width="8" height="8" fill="#FFEDD0" />
<rect x="56" y="40" width="8" height="8" fill="#FFEDD0" />
<rect x="64" y="40" width="8" height="8" fill="#FFEDD0" />
<rect x="72" y="40" width="8" height="8" fill="#FFEDD0" />
<rect x="80" y="40" width="8" height="8" fill="#FFEDD0" />
<rect x="88" y="40" width="8" height="8" fill="#FFEDD0" />
<rect x="16" y="48" width="8" height="8" fill="#FFEDD0" />
<rect x="24" y="48" width="8" height="8" fill="#FFEDD0" />
<rect x="32" y="48" width="8" height="8" fill="#FFEDD0" />
<rect x="40" y="48" width="8" height="8" fill="#FFEDD0" />
<rect x="48" y="48" width="8" height="8" fill="#FFEDD0" />
<rect x="56" y="48" width="8" height="8" fill="#FFEDD0" />
<rect x="64" y="48" width="8" height="8" fill="#FFEDD0" />
<rect x="72" y="48" width="8" height="8" fill="#FFEDD0" />
<rect x="80" y="48" width="8" height="8" fill="#FFCABB" />
<rect x="88" y="48" width="8" height="8" fill="#FFCABB" />
<rect x="96" y="48" width="8" height="8" fill="#FFCABB" />
<rect x="104" y="48" width="8" height="8" fill="#FFCABB" />
<rect x="16" y="56" width="8" height="8" fill="#FFEDD0" />
<rect x="24" y="56" width="8" height="8" fill="#FFEDD0" />
<rect x="32" y="56" width="8" height="8" fill="#FFEDD0" />
<rect x="40" y="56" width="8" height="8" fill="#FFEDD0" />
<rect x="48" y="56" width="8" height="8" fill="#FFEDD0" />
<rect x="56" y="56" width="8" height="8" fill="#FFEDD0" />
<rect x="64" y="56" width="8" height="8" fill="#FFEDD0" />
<rect x="72" y="56" width="8" height="8" fill="#FFEDD0" />
<rect x="80" y="56" width="8" height="8" fill="#FFCABB" />
<rect x="88" y="56" width="8" height="8" fill="#FFCABB" />
<rect x="96" y="56" width="8" height="8" fill="#FFCABB" />
<rect x="104" y="56" width="8" height="8" fill="#FFCABB" />
<rect x="16" y="64" width="8" height="8" fill="#FFEDD0" />
<rect x="24" y="64" width="8" height="8" fill="#FFEDD0" />
<rect x="32" y="64" width="8" height="8" fill="#FFEDD0" />
<rect x="40" y="64" width="8" height="8" fill="#FFEDD0" />
<rect x="48" y="64" width="8" height="8" fill="#FFEDD0" />
<rect x="56" y="64" width="8" height="8" fill="#FFEDD0" />
<rect x="64" y="64" width="8" height="8" fill="#FFCABB" />
<rect x="72" y="64" width="8" height="8" fill="#FFCABB" />
<rect x="80" y="64" width="8" height="8" fill="#FFCABB" />
<rect x="88" y="64" width="8" height="8" fill="#FFCABB" />
<rect x="96" y="64" width="8" height="8" fill="#FFCABB" />
<rect x="104" y="64" width="8" height="8" fill="#FFCABB" />
<rect x="112" y="64" width="8" height="8" fill="#FFE5BA" />
<rect x="120" y="64" width="8" height="8" fill="#FFE5BA" />
<rect x="16" y="72" width="8" height="8" fill="#FFEDD0" />
<rect x="24" y="72" width="8" height="8" fill="#FFEDD0" />
<rect x="32" y="72" width="8" height="8" fill="#FFEDD0" />
<rect x="40" y="72" width="8" height="8" fill="#FFEDD0" />
<rect x="48" y="72" width="8" height="8" fill="#FFEDD0" />
<rect x="56" y="72" width="8" height="8" fill="#FFEDD0" />
<rect x="64" y="72" width="8" height="8" fill="#FFCABB" />
<rect x="72" y="72" width="8" height="8" fill="#FFCABB" />
<rect x="80" y="72" width="8" height="8" fill="#FFCABB" />
<rect x="88" y="72" width="8" height="8" fill="#FFCABB" />
<rect x="96" y="72" width="8" height="8" fill="#FFCABB" />
<rect x="104" y="72" width="8" height="8" fill="#FFCABB" />
<rect x="112" y="72" width="8" height="8" fill="#FFE5BA" />
<rect x="120" y="72" width="8" height="8" fill="#FFE5BA" />
<rect x="32" y="80" width="8" height="8" fill="#FFEDD0" />
<rect x="40" y="80" width="8" height="8" fill="#FFEDD0" />
<rect x="48" y="80" width="8" height="8" fill="#FFCABB" />
<rect x="56" y="80" width="8" height="8" fill="#FFCABB" />
<rect x="64" y="80" width="8" height="8" fill="#FFCABB" />
<rect x="72" y="80" width="8" height="8" fill="#FFCABB" />
<rect x="80" y="80" width="8" height="8" fill="#FFCABB" />
<rect x="88" y="80" width="8" height="8" fill="#FFCABB" />
<rect x="96" y="80" width="8" height="8" fill="#FFE5BA" />
<rect x="104" y="80" width="8" height="8" fill="#FFE5BA" />
<rect x="112" y="80" width="8" height="8" fill="#FFE5BA" />
<rect x="120" y="80" width="8" height="8" fill="#FFE5BA" />
<rect x="128" y="80" width="8" height="8" fill="#FFE5BA" />
<rect x="136" y="80" width="8" height="8" fill="#FFE5BA" />
<rect x="32" y="88" width="8" height="8" fill="#FFEDD0" />
<rect x="40" y="88" width="8" height="8" fill="#FFEDD0" />
<rect x="48" y="88" width="8" height="8" fill="#FFCABB" />
<rect x="56" y="88" width="8" height="8" fill="#FFCABB" />
<rect x="64" y="88" width="8" height="8" fill="#FFCABB" />
<rect x="72" y="88" width="8" height="8" fill="#FFCABB" />
<rect x="80" y="88" width="8" height="8" fill="#FFCABB" />
<rect x="88" y="88" width="8" height="8" fill="#FFCABB" />
<rect x="96" y="88" width="8" height="8" fill="#FFE5BA" />
<rect x="104" y="88" width="8" height="8" fill="#FFE5BA" />
<rect x="112" y="88" width="8" height="8" fill="#FFE5BA" />
<rect x="120" y="88" width="8" height="8" fill="#FFE5BA" />
<rect x="128" y="88" width="8" height="8" fill="#FFE5BA" />
<rect x="136" y="88" width="8" height="8" fill="#FFE5BA" />
<rect x="48" y="96" width="8" height="8" fill="#FFCABB" />
<rect x="56" y="96" width="8" height="8" fill="#FFCABB" />
<rect x="64" y="96" width="8" height="8" fill="#FFCABB" />
<rect x="72" y="96" width="8" height="8" fill="#FFCABB" />
<rect x="80" y="96" width="8" height="8" fill="#FFE5BA" />
<rect x="88" y="96" width="8" height="8" fill="#FFE5BA" />
<rect x="96" y="96" width="8" height="8" fill="#715A34" />
<rect x="104" y="96" width="8" height="8" fill="#715A34" />
<rect x="112" y="96" width="8" height="8" fill="#FFE5BA" />
<rect x="120" y="96" width="8" height="8" fill="#FFE5BA" />
<rect x="128" y="96" width="8" height="8" fill="#FFE5BA" />
<rect x="136" y="96" width="8" height="8" fill="#FFE5BA" />
<rect x="144" y="96" width="8" height="8" fill="#FFE5BA" />
<rect x="152" y="96" width="8" height="8" fill="#FFE5BA" />
<rect x="160" y="96" width="8" height="8" fill="#FFCABB" />
<rect x="168" y="96" width="8" height="8" fill="#FFCABB" />
<rect x="48" y="104" width="8" height="8" fill="#FFCABB" />
<rect x="56" y="104" width="8" height="8" fill="#FFCABB" />
<rect x="64" y="104" width="8" height="8" fill="#FFCABB" />
<rect x="72" y="104" width="8" height="8" fill="#FFCABB" />
<rect x="80" y="104" width="8" height="8" fill="#FFE5BA" />
<rect x="88" y="104" width="8" height="8" fill="#FFE5BA" />
<rect x="96" y="104" width="8" height="8" fill="#715A34" />
<rect x="104" y="104" width="8" height="8" fill="#715A34" />
<rect x="112" y="104" width="8" height="8" fill="#FFE5BA" />
<rect x="120" y="104" width="8" height="8" fill="#FFE5BA" />
<rect x="128" y="104" width="8" height="8" fill="#FFE5BA" />
<rect x="136" y="104" width="8" height="8" fill="#FFE5BA" />
<rect x="144" y="104" width="8" height="8" fill="#FFE5BA" />
<rect x="152" y="104" width="8" height="8" fill="#FFE5BA" />
<rect x="160" y="104" width="8" height="8" fill="#FFCABB" />
<rect x="168" y="104" width="8" height="8" fill="#FFCABB" />
<rect x="64" y="112" width="8" height="8" fill="#FFE5BA" />
<rect x="72" y="112" width="8" height="8" fill="#FFE5BA" />
<rect x="80" y="112" width="8" height="8" fill="#FFE5BA" />
<rect x="88" y="112" width="8" height="8" fill="#FFE5BA" />
<rect x="96" y="112" width="8" height="8" fill="#FFE5BA" />
<rect x="104" y="112" width="8" height="8" fill="#FFE5BA" />
<rect x="112" y="112" width="8" height="8" fill="#FFE5BA" />
<rect x="120" y="112" width="8" height="8" fill="#FFE5BA" />
<rect x="128" y="112" width="8" height="8" fill="#FFE5BA" />
<rect x="136" y="112" width="8" height="8" fill="#FFE5BA" />
<rect x="144" y="112" width="8" height="8" fill="#FFCABB" />
<rect x="152" y="112" width="8" height="8" fill="#FFCABB" />
<rect x="160" y="112" width="8" height="8" fill="#FFCABB" />
<rect x="168" y="112" width="8" height="8" fill="#FFCABB" />
<rect x="176" y="112" width="8" height="8" fill="#FFCABB" />
<rect x="184" y="112" width="8" height="8" fill="#FFCABB" />
<rect x="64" y="120" width="8" height="8" fill="#FFE5BA" />
<rect x="72" y="120" width="8" height="8" fill="#FFE5BA" />
<rect x="80" y="120" width="8" height="8" fill="#FFE5BA" />
<rect x="88" y="120" width="8" height="8" fill="#FFE5BA" />
<rect x="96" y="120" width="8" height="8" fill="#FFE5BA" />
<rect x="104" y="120" width="8" height="8" fill="#FFE5BA" />
<rect x="112" y="120" width="8" height="8" fill="#FFE5BA" />
<rect x="120" y="120" width="8" height="8" fill="#FFE5BA" />
<rect x="128" y="120" width="8" height="8" fill="#FFE5BA" />
<rect x="136" y="120" width="8" height="8" fill="#FFE5BA" />
<rect x="144" y="120" width="8" height="8" fill="#FFCABB" />
<rect x="152" y="120" width="8" height="8" fill="#FFCABB" />
<rect x="160" y="120" width="8" height="8" fill="#FFCABB" />
<rect x="168" y="120" width="8" height="8" fill="#FFCABB" />
<rect x="176" y="120" width="8" height="8" fill="#FFCABB" />
<rect x="184" y="120" width="8" height="8" fill="#FFCABB" />
<rect x="80" y="128" width="8" height="8" fill="#FFE5BA" />
<rect x="88" y="128" width="8" height="8" fill="#FFE5BA" />
<rect x="96" y="128" width="8" height="8" fill="#FFE5BA" />
<rect x="104" y="128" width="8" height="8" fill="#FFE5BA" />
<rect x="112" y="128" width="8" height="8" fill="#FFE5BA" />
<rect x="120" y="128" width="8" height="8" fill="#FFE5BA" />
<rect x="128" y="128" width="8" height="8" fill="#FFCABB" />
<rect x="136" y="128" width="8" height="8" fill="#FFCABB" />
<rect x="144" y="128" width="8" height="8" fill="#FFCABB" />
<rect x="152" y="128" width="8" height="8" fill="#FFCABB" />
<rect x="160" y="128" width="8" height="8" fill="#FFCABB" />
<rect x="168" y="128" width="8" height="8" fill="#FFCABB" />
<rect x="176" y="128" width="8" height="8" fill="#FFE5BA" />
<rect x="184" y="128" width="8" height="8" fill="#FFE5BA" />
<rect x="80" y="136" width="8" height="8" fill="#FFE5BA" />
<rect x="88" y="136" width="8" height="8" fill="#FFE5BA" />
<rect x="96" y="136" width="8" height="8" fill="#FFE5BA" />
<rect x="104" y="136" width="8" height="8" fill="#FFE5BA" />
<rect x="112" y="136" width="8" height="8" fill="#FFE5BA" />
<rect x="120" y="136" width="8" height="8" fill="#FFE5BA" />
<rect x="128" y="136" width="8" height="8" fill="#FFCABB" />
<rect x="136" y="136" width="8" height="8" fill="#FFCABB" />
<rect x="144" y="136" width="8" height="8" fill="#FFCABB" />
<rect x="152" y="136" width="8" height="8" fill="#FFCABB" />
<rect x="160" y="136" width="8" height="8" fill="#FFCABB" />
<rect x="168" y="136" width="8" height="8" fill="#FFCABB" />
<rect x="176" y="136" width="8" height="8" fill="#FFE5BA" />
<rect x="184" y="136" width="8" height="8" fill="#FFE5BA" />
<rect x="96" y="144" width="8" height="8" fill="#FFE5BA" />
<rect x="104" y="144" width="8" height="8" fill="#FFE5BA" />
<rect x="112" y="144" width="8" height="8" fill="#FFCABB" />
<rect x="120" y="144" width="8" height="8" fill="#FFCABB" />
<rect x="128" y="144" width="8" height="8" fill="#FFCABB" />
<rect x="136" y="144" width="8" height="8" fill="#FFCABB" />
<rect x="144" y="144" width="8" height="8" fill="#FFCABB" />
<rect x="152" y="144" width="8" height="8" fill="#FFCABB" />
<rect x="160" y="144" width="8" height="8" fill="#FFE5BA" />
<rect x="168" y="144" width="8" height="8" fill="#FFE5BA" />
<rect x="176" y="144" width="8" height="8" fill="#FFE5BA" />
<rect x="184" y="144" width="8" height="8" fill="#FFE5BA" />
<rect x="192" y="144" width="8" height="8" fill="#FFE5BA" />
<rect x="200" y="144" width="8" height="8" fill="#FFE5BA" />
<rect x="96" y="152" width="8" height="8" fill="#FFE5BA" />
<rect x="104" y="152" width="8" height="8" fill="#FFE5BA" />
<rect x="112" y="152" width="8" height="8" fill="#FFCABB" />
<rect x="120" y="152" width="8" height="8" fill="#FFCABB" />
<rect x="128" y="152" width="8" height="8" fill="#FFCABB" />
<rect x="136" y="152" width="8" height="8" fill="#FFCABB" />
<rect x="144" y="152" width="8" height="8" fill="#FFCABB" />
<rect x="152" y="152" width="8" height="8" fill="#FFCABB" />
<rect x="160" y="152" width="8" height="8" fill="#FFE5BA" />
<rect x="168" y="152" width="8" height="8" fill="#FFE5BA" />
<rect x="176" y="152" width="8" height="8" fill="#FFE5BA" />
<rect x="184" y="152" width="8" height="8" fill="#FFE5BA" />
<rect x="192" y="152" width="8" height="8" fill="#FFE5BA" />
<rect x="200" y="152" width="8" height="8" fill="#FFE5BA" />
<rect x="96" y="160" width="8" height="8" fill="#FFCABB" />
<rect x="104" y="160" width="8" height="8" fill="#FFCABB" />
<rect x="112" y="160" width="8" height="8" fill="#FFCABB" />
<rect x="120" y="160" width="8" height="8" fill="#FFCABB" />
<rect x="128" y="160" width="8" height="8" fill="#FFCABB" />
<rect x="136" y="160" width="8" height="8" fill="#FFCABB" />
<rect x="144" y="160" width="8" height="8" fill="#FFE5BA" />
<rect x="152" y="160" width="8" height="8" fill="#FFE5BA" />
<rect x="160" y="160" width="8" height="8" fill="#FFE5BA" />
<rect x="168" y="160" width="8" height="8" fill="#FFE5BA" />
<rect x="176" y="160" width="8" height="8" fill="#FFE5BA" />
<rect x="184" y="160" width="8" height="8" fill="#FFE5BA" />
<rect x="192" y="160" width="8" height="8" fill="#FFE5BA" />
<rect x="200" y="160" width="8" height="8" fill="#FFE5BA" />
<rect x="208" y="160" width="8" height="8" fill="#FFE5BA" />
<rect x="216" y="160" width="8" height="8" fill="#FFE5BA" />
<rect x="96" y="168" width="8" height="8" fill="#FFCABB" />
<rect x="104" y="168" width="8" height="8" fill="#FFCABB" />
<rect x="112" y="168" width="8" height="8" fill="#FFCABB" />
<rect x="120" y="168" width="8" height="8" fill="#FFCABB" />
<rect x="128" y="168" width="8" height="8" fill="#FFCABB" />
<rect x="136" y="168" width="8" height="8" fill="#FFCABB" />
<rect x="144" y="168" width="8" height="8" fill="#FFE5BA" />
<rect x="152" y="168" width="8" height="8" fill="#FFE5BA" />
<rect x="160" y="168" width="8" height="8" fill="#FFE5BA" />
<rect x="168" y="168" width="8" height="8" fill="#FFE5BA" />
<rect x="176" y="168" width="8" height="8" fill="#FFE5BA" />
<rect x="184" y="168" width="8" height="8" fill="#FFE5BA" />
<rect x="192" y="168" width="8" height="8" fill="#FFE5BA" />
<rect x="200" y="168" width="8" height="8" fill="#FFE5BA" />
<rect x="208" y="168" width="8" height="8" fill="#FFE5BA" />
<rect x="216" y="168" width="8" height="8" fill="#FFE5BA" />
<rect x="112" y="176" width="8" height="8" fill="#FFCABB" />
<rect x="120" y="176" width="8" height="8" fill="#FFCABB" />
<rect x="128" y="176" width="8" height="8" fill="#FFE5BA" />
<rect x="136" y="176" width="8" height="8" fill="#FFE5BA" />
<rect x="144" y="176" width="8" height="8" fill="#FFE5BA" />
<rect x="152" y="176" width="8" height="8" fill="#FFE5BA" />
<rect x="160" y="176" width="8" height="8" fill="#FFE5BA" />
<rect x="168" y="176" width="8" height="8" fill="#FFE5BA" />
<rect x="176" y="176" width="8" height="8" fill="#715A34" />
<rect x="184" y="176" width="8" height="8" fill="#715A34" />
<rect x="192" y="176" width="8" height="8" fill="#FFE5BA" />
<rect x="200" y="176" width="8" height="8" fill="#FFE5BA" />
<rect x="208" y="176" width="8" height="8" fill="#FFE5BA" />
<rect x="216" y="176" width="8" height="8" fill="#FFE5BA" />
<rect x="224" y="176" width="8" height="8" fill="#FFE5BA" />
<rect x="232" y="176" width="8" height="8" fill="#FFE5BA" />
<rect x="112" y="184" width="8" height="8" fill="#FFCABB" />
<rect x="120" y="184" width="8" height="8" fill="#FFCABB" />
<rect x="128" y="184" width="8" height="8" fill="#FFE5BA" />
<rect x="136" y="184" width="8" height="8" fill="#FFE5BA" />
<rect x="144" y="184" width="8" height="8" fill="#FFE5BA" />
<rect x="152" y="184" width="8" height="8" fill="#FFE5BA" />
<rect x="160" y="184" width="8" height="8" fill="#FFE5BA" />
<rect x="168" y="184" width="8" height="8" fill="#FFE5BA" />
<rect x="176" y="184" width="8" height="8" fill="#715A34" />
<rect x="184" y="184" width="8" height="8" fill="#715A34" />
<rect x="192" y="184" width="8" height="8" fill="#FFE5BA" />
<rect x="200" y="184" width="8" height="8" fill="#FFE5BA" />
<rect x="208" y="184" width="8" height="8" fill="#FFE5BA" />
<rect x="216" y="184" width="8" height="8" fill="#FFE5BA" />
<rect x="224" y="184" width="8" height="8" fill="#FFE5BA" />
<rect x="232" y="184" width="8" height="8" fill="#FFE5BA" />
<rect x="144" y="192" width="8" height="8" fill="#FFE5BA" />
<rect x="152" y="192" width="8" height="8" fill="#FFE5BA" />
<rect x="160" y="192" width="8" height="8" fill="#FFE5BA" />
<rect x="168" y="192" width="8" height="8" fill="#FFE5BA" />
<rect x="176" y="192" width="8" height="8" fill="#FFE5BA" />
<rect x="184" y="192" width="8" height="8" fill="#FFE5BA" />
<rect x="192" y="192" width="8" height="8" fill="#FFE5BA" />
<rect x="200" y="192" width="8" height="8" fill="#FFE5BA" />
<rect x="208" y="192" width="8" height="8" fill="#FFE5BA" />
<rect x="216" y="192" width="8" height="8" fill="#FFE5BA" />
<rect x="224" y="192" width="8" height="8" fill="#FFE5BA" />
<rect x="232" y="192" width="8" height="8" fill="#FFE5BA" />
<rect x="240" y="192" width="8" height="8" fill="#FFE5BA" />
<rect x="248" y="192" width="8" height="8" fill="#FFE5BA" />
<rect x="144" y="200" width="8" height="8" fill="#FFE5BA" />
<rect x="152" y="200" width="8" height="8" fill="#FFE5BA" />
<rect x="160" y="200" width="8" height="8" fill="#FFE5BA" />
<rect x="168" y="200" width="8" height="8" fill="#FFE5BA" />
<rect x="176" y="200" width="8" height="8" fill="#FFE5BA" />
<rect x="184" y="200" width="8" height="8" fill="#FFE5BA" />
<rect x="192" y="200" width="8" height="8" fill="#FFE5BA" />
<rect x="200" y="200" width="8" height="8" fill="#FFE5BA" />
<rect x="208" y="200" width="8" height="8" fill="#FFE5BA" />
<rect x="216" y="200" width="8" height="8" fill="#FFE5BA" />
<rect x="224" y="200" width="8" height="8" fill="#FFE5BA" />
<rect x="232" y="200" width="8" height="8" fill="#FFE5BA" />
<rect x="240" y="200" width="8" height="8" fill="#FFE5BA" />
<rect x="248" y="200" width="8" height="8" fill="#FFE5BA" />
<rect x="160" y="208" width="8" height="8" fill="#FFE5BA" />
<rect x="168" y="208" width="8" height="8" fill="#FFE5BA" />
<rect x="176" y="208" width="8" height="8" fill="#FFE5BA" />
<rect x="184" y="208" width="8" height="8" fill="#FFE5BA" />
<rect x="192" y="208" width="8" height="8" fill="#FFE5BA" />
<rect x="200" y="208" width="8" height="8" fill="#FFE5BA" />
<rect x="208" y="208" width="8" height="8" fill="#715A34" />
<rect x="216" y="208" width="8" height="8" fill="#715A34" />
<rect x="224" y="208" width="8" height="8" fill="#FFE5BA" />
<rect x="232" y="208" width="8" height="8" fill="#FFE5BA" />
<rect x="240" y="208" width="8" height="8" fill="#FFE5BA" />
<rect x="248" y="208" width="8" height="8" fill="#FFE5BA" />
<rect x="256" y="208" width="8" height="8" fill="#FFE5BA" />
<rect x="264" y="208" width="8" height="8" fill="#FFE5BA" />
<rect x="160" y="216" width="8" height="8" fill="#FFE5BA" />
<rect x="168" y="216" width="8" height="8" fill="#FFE5BA" />
<rect x="176" y="216" width="8" height="8" fill="#FFE5BA" />
<rect x="184" y="216" width="8" height="8" fill="#FFE5BA" />
<rect x="192" y="216" width="8" height="8" fill="#FFE5BA" />
<rect x="200" y="216" width="8" height="8" fill="#FFE5BA" />
<rect x="208" y="216" width="8" height="8" fill="#715A34" />
<rect x="216" y="216" width="8" height="8" fill="#715A34" />
<rect x="224" y="216" width="8" height="8" fill="#FFE5BA" />
<rect x="232" y="216" width="8" height="8" fill="#FFE5BA" />
<rect x="240" y="216" width="8" height="8" fill="#FFE5BA" />
<rect x="248" y="216" width="8" height="8" fill="#FFE5BA" />
<rect x="256" y="216" width="8" height="8" fill="#FFE5BA" />
<rect x="264" y="216" width="8" height="8" fill="#FFE5BA" />
<rect x="176" y="224" width="8" height="8" fill="#FFE5BA" />
<rect x="184" y="224" width="8" height="8" fill="#FFE5BA" />
<rect x="192" y="224" width="8" height="8" fill="#FFE5BA" />
<rect x="200" y="224" width="8" height="8" fill="#FFE5BA" />
<rect x="208" y="224" width="8" height="8" fill="#FFE5BA" />
<rect x="216" y="224" width="8" height="8" fill="#FFE5BA" />
<rect x="224" y="224" width="8" height="8" fill="#FFE5BA" />
<rect x="232" y="224" width="8" height="8" fill="#FFE5BA" />
<rect x="240" y="224" width="8" height="8" fill="#FFE5BA" />
<rect x="248" y="224" width="8" height="8" fill="#FFE5BA" />
<rect x="256" y="224" width="8" height="8" fill="#FFE5BA" />
<rect x="264" y="224" width="8" height="8" fill="#FFE5BA" />
<rect x="272" y="224" width="8" height="8" fill="#FFE5BA" />
<rect x="280" y="224" width="8" height="8" fill="#FFE5BA" />
<rect x="176" y="232" width="8" height="8" fill="#FFE5BA" />
<rect x="184" y="232" width="8" height="8" fill="#FFE5BA" />
<rect x="192" y="232" width="8" height="8" fill="#FFE5BA" />
<rect x="200" y="232" width="8" height="8" fill="#FFE5BA" />
<rect x="208" y="232" width="8" height="8" fill="#FFE5BA" />
<rect x="216" y="232" width="8" height="8" fill="#FFE5BA" />
<rect x="224" y="232" width="8" height="8" fill="#FFE5BA" />
<rect x="232" y="232" width="8" height="8" fill="#FFE5BA" />
<rect x="240" y="232" width="8" height="8" fill="#FFE5BA" />
<rect x="248" y="232" width="8" height="8" fill="#FFE5BA" />
<rect x="256" y="232" width="8" height="8" fill="#FFE5BA" />
<rect x="264" y="232" width="8" height="8" fill="#FFE5BA" />
<rect x="272" y="232" width="8" height="8" fill="#FFE5BA" />
<rect x="280" y="232" width="8" height="8" fill="#FFE5BA" />
<rect x="192" y="240" width="8" height="8" fill="#FFE5BA" />
<rect x="200" y="240" width="8" height="8" fill="#FFE5BA" />
<rect x="208" y="240" width="8" height="8" fill="#FFE5BA" />
<rect x="216" y="240" width="8" height="8" fill="#FFE5BA" />
<rect x="224" y="240" width="8" height="8" fill="#FFE5BA" />
<rect x="232" y="240" width="8" height="8" fill="#FFE5BA" />
<rect x="240" y="240" width="8" height="8" fill="#715A34" />
<rect x="248" y="240" width="8" height="8" fill="#715A34" />
<rect x="256" y="240" width="8" height="8" fill="#FFE5BA" />
<rect x="264" y="240" width="8" height="8" fill="#FFE5BA" />
<rect x="272" y="240" width="8" height="8" fill="#FFE5BA" />
<rect x="280" y="240" width="8" height="8" fill="#FFE5BA" />
<rect x="288" y="240" width="8" height="8" fill="#FFE5BA" />
<rect x="296" y="240" width="8" height="8" fill="#FFE5BA" />
<rect x="192" y="248" width="8" height="8" fill="#FFE5BA" />
<rect x="200" y="248" width="8" height="8" fill="#FFE5BA" />
<rect x="208" y="248" width="8" height="8" fill="#FFE5BA" />
<rect x="216" y="248" width="8" height="8" fill="#FFE5BA" />
<rect x="224" y="248" width="8" height="8" fill="#FFE5BA" />
<rect x="232" y="248" width="8" height="8" fill="#FFE5BA" />
<rect x="240" y="248" width="8" height="8" fill="#715A34" />
<rect x="248" y="248" width="8" height="8" fill="#715A34" />
<rect x="256" y="248" width="8" height="8" fill="#FFE5BA" />
<rect x="264" y="248" width="8" height="8" fill="#FFE5BA" />
<rect x="272" y="248" width="8" height="8" fill="#FFE5BA" />
<rect x="280" y="248" width="8" height="8" fill="#FFE5BA" />
<rect x="288" y="248" width="8" height="8" fill="#FFE5BA" />
<rect x="296" y="248" width="8" height="8" fill="#FFE5BA" />
<rect x="208" y="256" width="8" height="8" fill="#FFE5BA" />
<rect x="216" y="256" width="8" height="8" fill="#FFE5BA" />
<rect x="224" y="256" width="8" height="8" fill="#FFE5BA" />
<rect x="232" y="256" width="8" height="8" fill="#FFE5BA" />
<rect x="240" y="256" width="8" height="8" fill="#FFE5BA" />
<rect x="248" y="256" width="8" height="8" fill="#FFE5BA" />
<rect x="256" y="256" width="8" height="8" fill="#FFE5BA" />
<rect x="264" y="256" width="8" height="8" fill="#FFE5BA" />
<rect x="272" y="256" width="8" height="8" fill="#FFE5BA" />
<rect x="280" y="256" width="8" height="8" fill="#FFE5BA" />
<rect x="288" y="256" width="8" height="8" fill="#FFE5BA" />
<rect x="296" y="256" width="8" height="8" fill="#FFE5BA" />
<rect x="304" y="256" width="8" height="8" fill="#FFE5BA" />
<rect x="312" y="256" width="8" height="8" fill="#FFE5BA" />
<rect x="208" y="264" width="8" height="8" fill="#FFE5BA" />
<rect x="216" y="264" width="8" height="8" fill="#FFE5BA" />
<rect x="224" y="264" width="8" height="8" fill="#FFE5BA" />
<rect x="232" y="264" width="8" height="8" fill="#FFE5BA" />
<rect x="240" y="264" width="8" height="8" fill="#FFE5BA" />
<rect x="248" y="264" width="8" height="8" fill="#FFE5BA" />
<rect x="256" y="264" width="8" height="8" fill="#FFE5BA" />
<rect x="264" y="264" width="8" height="8" fill="#FFE5BA" />
<rect x="272" y="264" width="8" height="8" fill="#FFE5BA" />
<rect x="280" y="264" width="8" height="8" fill="#FFE5BA" />
<rect x="288" y="264" width="8" height="8" fill="#FFE5BA" />
<rect x="296" y="264" width="8" height="8" fill="#FFE5BA" />
<rect x="304" y="264" width="8" height="8" fill="#FFE5BA" />
<rect x="312" y="264" width="8" height="8" fill="#FFE5BA" />
<rect x="224" y="272" width="8" height="8" fill="#FFE5BA" />
<rect x="232" y="272" width="8" height="8" fill="#FFE5BA" />
<rect x="240" y="272" width="8" height="8" fill="#FFE5BA" />
<rect x="248" y="272" width="8" height="8" fill="#FFE5BA" />
<rect x="256" y="272" width="8" height="8" fill="#FFE5BA" />
<rect x="264" y="272" width="8" height="8" fill="#FFE5BA" />
<rect x="272" y="272" width="8" height="8" fill="#715A34" />
<rect x="280" y="272" width="8" height="8" fill="#715A34" />
<rect x="288" y="272" width="8" height="8" fill="#FFE5BA" />
<rect x="296" y="272" width="8" height="8" fill="#FFE5BA" />
<rect x="304" y="272" width="8" height="8" fill="#FFE5BA" />
<rect x="312" y="272" width="8" height="8" fill="#FFE5BA" />
<rect x="320" y="272" width="8" height="8" fill="#FFE5BA" />
<rect x="328" y="272" width="8" height="8" fill="#FFE5BA" />
<rect x="224" y="280" width="8" height="8" fill="#FFE5BA" />
<rect x="232" y="280" width="8" height="8" fill="#FFE5BA" />
<rect x="240" y="280" width="8" height="8" fill="#FFE5BA" />
<rect x="248" y="280" width="8" height="8" fill="#FFE5BA" />
<rect x="256" y="280" width="8" height="8" fill="#FFE5BA" />
<rect x="264" y="280" width="8" height="8" fill="#FFE5BA" />
<rect x="272" y="280" width="8" height="8" fill="#715A34" />
<rect x="280" y="280" width="8" height="8" fill="#715A34" />
<rect x="288" y="280" width="8" height="8" fill="#FFE5BA" />
<rect x="296" y="280" width="8" height="8" fill="#FFE5BA" />
<rect x="304" y="280" width="8" height="8" fill="#FFE5BA" />
<rect x="312" y="280" width="8" height="8" fill="#FFE5BA" />
<rect x="320" y="280" width="8" height="8" fill="#FFE5BA" />
<rect x="328" y="280" width="8" height="8" fill="#FFE5BA" />
<rect x="240" y="288" width="8" height="8" fill="#FFE5BA" />
<rect x="248" y="288" width="8" height="8" fill="#FFE5BA" />
<rect x="256" y="288" width="8" height="8" fill="#FFE5BA" />
<rect x="264" y="288" width="8" height="8" fill="#FFE5BA" />
<rect x="272" y="288" width="8" height="8" fill="#FFE5BA" />
<rect x="280" y="288" width="8" height="8" fill="#FFE5BA" />
<rect x="288" y="288" width="8" height="8" fill="#FFE5BA" />
<rect x="296" y="288" width="8" height="8" fill="#FFE5BA" />
<rect x="304" y="288" width="8" height="8" fill="#FFE5BA" />
<rect x="312" y="288" width="8" height="8" fill="#FFE5BA" />
<rect x="320" y="288" width="8" height="8" fill="#FFE5BA" />
<rect x="328" y="288" width="8" height="8" fill="#FFE5BA" />
<rect x="336" y="288" width="8" height="8" fill="#FFE5BA" />
<rect x="344" y="288" width="8" height="8" fill="#FFE5BA" />
<rect x="240" y="296" width="8" height="8" fill="#FFE5BA" />
<rect x="248" y="296" width="8" height="8" fill="#FFE5BA" />
<rect x="256" y="296" width="8" height="8" fill="#FFE5BA" />
<rect x="264" y="296" width="8" height="8" fill="#FFE5BA" />
<rect x="272" y="296" width="8" height="8" fill="#FFE5BA" />
<rect x="280" y="296" width="8" height="8" fill="#FFE5BA" />
<rect x="288" y="296" width="8" height="8" fill="#FFE5BA" />
<rect x="296" y="296" width="8" height="8" fill="#FFE5BA" />
<rect x="304" y="296" width="8" height="8" fill="#FFE5BA" />
<rect x="312" y="296" width="8" height="8" fill="#FFE5BA" />
<rect x="320" y="296" width="8" height="8" fill="#FFE5BA" />
<rect x="328" y="296" width="8" height="8" fill="#FFE5BA" />
<rect x="336" y="296" width="8" height="8" fill="#FFE5BA" />
<rect x="344" y="296" width="8" height="8" fill="#FFE5BA" />
<rect x="256" y="304" width="8" height="8" fill="#FFE5BA" />
<rect x="264" y="304" width="8" height="8" fill="#FFE5BA" />
<rect x="272" y="304" width="8" height="8" fill="#FFE5BA" />
<rect x="280" y="304" width="8" height="8" fill="#FFE5BA" />
<rect x="288" y="304" width="8" height="8" fill="#FFE5BA" />
<rect x="296" y="304" width="8" height="8" fill="#FFE5BA" />
<rect x="304" y="304" width="8" height="8" fill="#715A34" />
<rect x="312" y="304" width="8" height="8" fill="#715A34" />
<rect x="320" y="304" width="8" height="8" fill="#FFE5BA" />
<rect x="328" y="304" width="8" height="8" fill="#FFE5BA" />
<rect x="336" y="304" width="8" height="8" fill="#FFE5BA" />
<rect x="344" y="304" width="8" height="8" fill="#FFE5BA" />
<rect x="352" y="304" width="8" height="8" fill="#FFE5BA" />
<rect x="360" y="304" width="8" height="8" fill="#FFE5BA" />
<rect x="256" y="312" width="8" height="8" fill="#FFE5BA" />
<rect x="264" y="312" width="8" height="8" fill="#FFE5BA" />
<rect x="272" y="312" width="8" height="8" fill="#FFE5BA" />
<rect x="280" y="312" width="8" height="8" fill="#FFE5BA" />
<rect x="288" y="312" width="8" height="8" fill="#FFE5BA" />
<rect x="296" y="312" width="8" height="8" fill="#FFE5BA" />
<rect x="304" y="312" width="8" height="8" fill="#715A34" />
<rect x="312" y="312" width="8" height="8" fill="#715A34" />
<rect x="320" y="312" width="8" height="8" fill="#FFE5BA" />
<rect x="328" y="312" width="8" height="8" fill="#FFE5BA" />
<rect x="336" y="312" width="8" height="8" fill="#FFE5BA" />
<rect x="344" y="312" width="8" height="8" fill="#FFE5BA" />
<rect x="352" y="312" width="8" height="8" fill="#FFE5BA" />
<rect x="360" y="312" width="8" height="8" fill="#FFE5BA" />
<rect x="272" y="320" width="8" height="8" fill="#FFE5BA" />
<rect x="280" y="320" width="8" height="8" fill="#FFE5BA" />
<rect x="288" y="320" width="8" height="8" fill="#FFE5BA" />
<rect x="296" y="320" width="8" height="8" fill="#FFE5BA" />
<rect x="304" y="320" width="8" height="8" fill="#FFE5BA" />
<rect x="312" y="320" width="8" height="8" fill="#FFE5BA" />
<rect x="320" y="320" width="8" height="8" fill="#FFE5BA" />
<rect x="328" y="320" width="8" height="8" fill="#FFE5BA" />
<rect x="336" y="320" width="8" height="8" fill="#FFE5BA" />
<rect x="344" y="320" width="8" height="8" fill="#FFE5BA" />
<rect x="352" y="320" width="8" height="8" fill="#FFE5BA" />
<rect x="360" y="320" width="8" height="8" fill="#FFE5BA" />
<rect x="272" y="328" width="8" height="8" fill="#FFE5BA" />
<rect x="280" y="328" width="8" height="8" fill="#FFE5BA" />
<rect x="288" y="328" width="8" height="8" fill="#FFE5BA" />
<rect x="296" y="328" width="8" height="8" fill="#FFE5BA" />
<rect x="304" y="328" width="8" height="8" fill="#FFE5BA" />
<rect x="312" y="328" width="8" height="8" fill="#FFE5BA" />
<rect x="320" y="328" width="8" height="8" fill="#FFE5BA" />
<rect x="328" y="328" width="8" height="8" fill="#FFE5BA" />
<rect x="336" y="328" width="8" height="8" fill="#FFE5BA" />
<rect x="344" y="328" width="8" height="8" fill="#FFE5BA" />
<rect x="352" y="328" width="8" height="8" fill="#FFE5BA" />
<rect x="360" y="328" width="8" height="8" fill="#FFE5BA" />
<rect x="288" y="336" width="8" height="8" fill="#FFE5BA" />
<rect x="296" y="336" width="8" height="8" fill="#FFE5BA" />
<rect x="304" y="336" width="8" height="8" fill="#FFE5BA" />
<rect x="312" y="336" width="8" height="8" fill="#FFE5BA" />
<rect x="320" y="336" width="8" height="8" fill="#FFE5BA" />
<rect x="328" y="336" width="8" height="8" fill="#FFE5BA" />
<rect x="336" y="336" width="8" height="8" fill="#FFE5BA" />
<rect x="344" y="336" width="8" height="8" fill="#FFE5BA" />
<rect x="352" y="336" width="8" height="8" fill="#FFE5BA" />
<rect x="360" y="336" width="8" height="8" fill="#FFE5BA" />
<rect x="368" y="336" width="8" height="8" fill="#FFCABB" />
<rect x="376" y="336" width="8" height="8" fill="#FFCABB" />
<rect x="288" y="344" width="8" height="8" fill="#FFE5BA" />
<rect x="296" y="344" width="8" height="8" fill="#FFE5BA" />
<rect x="304" y="344" width="8" height="8" fill="#FFE5BA" />
<rect x="312" y="344" width="8" height="8" fill="#FFE5BA" />
<rect x="320" y="344" width="8" height="8" fill="#FFE5BA" />
<rect x="328" y="344" width="8" height="8" fill="#FFE5BA" />
<rect x="336" y="344" width="8" height="8" fill="#FFE5BA" />
<rect x="344" y="344" width="8" height="8" fill="#FFE5BA" />
<rect x="352" y="344" width="8" height="8" fill="#FFE5BA" />
<rect x="360" y="344" width="8" height="8" fill="#FFE5BA" />
<rect x="368" y="344" width="8" height="8" fill="#FFCABB" />
<rect x="376" y="344" width="8" height="8" fill="#FFCABB" />
<rect x="304" y="352" width="8" height="8" fill="#FFE5BA" />
<rect x="312" y="352" width="8" height="8" fill="#FFE5BA" />
<rect x="320" y="352" width="8" height="8" fill="#FFE5BA" />
<rect x="328" y="352" width="8" height="8" fill="#FFE5BA" />
<rect x="336" y="352" width="8" height="8" fill="#FFE5BA" />
<rect x="344" y="352" width="8" height="8" fill="#FFE5BA" />
<rect x="352" y="352" width="8" height="8" fill="#FFCABB" />
<rect x="360" y="352" width="8" height="8" fill="#FFCABB" />
<rect x="368" y="352" width="8" height="8" fill="#FFCABB" />
<rect x="376" y="352" width="8" height="8" fill="#FFCABB" />
<rect x="384" y="352" width="8" height="8" fill="#FFCABB" />
<rect x="392" y="352" width="8" height="8" fill="#FFCABB" />
<rect x="400" y="352" width="8" height="8" fill="#FFE5BA" />
<rect x="408" y="352" width="8" height="8" fill="#FFE5BA" />
<rect x="304" y="360" width="8" height="8" fill="#FFE5BA" />
<rect x="312" y="360" width="8" height="8" fill="#FFE5BA" />
<rect x="320" y="360" width="8" height="8" fill="#FFE5BA" />
<rect x="328" y="360" width="8" height="8" fill="#FFE5BA" />
<rect x="336" y="360" width="8" height="8" fill="#FFE5BA" />
<rect x="344" y="360" width="8" height="8" fill="#FFE5BA" />
<rect x="352" y="360" width="8" height="8" fill="#FFCABB" />
<rect x="360" y="360" width="8" height="8" fill="#FFCABB" />
<rect x="368" y="360" width="8" height="8" fill="#FFCABB" />
<rect x="376" y="360" width="8" height="8" fill="#FFCABB" />
<rect x="384" y="360" width="8" height="8" fill="#FFCABB" />
<rect x="392" y="360" width="8" height="8" fill="#FFCABB" />
<rect x="400" y="360" width="8" height="8" fill="#FFE5BA" />
<rect x="408" y="360" width="8" height="8" fill="#FFE5BA" />
<rect x="336" y="368" width="8" height="8" fill="#FFCABB" />
<rect x="344" y="368" width="8" height="8" fill="#FFCABB" />
<rect x="352" y="368" width="8" height="8" fill="#FFCABB" />
<rect x="360" y="368" width="8" height="8" fill="#FFCABB" />
<rect x="368" y="368" width="8" height="8" fill="#FFCABB" />
<rect x="376" y="368" width="8" height="8" fill="#FFCABB" />
<rect x="384" y="368" width="8" height="8" fill="#FFE5BA" />
<rect x="392" y="368" width="8" height="8" fill="#FFE5BA" />
<rect x="400" y="368" width="8" height="8" fill="#FFE5BA" />
<rect x="408" y="368" width="8" height="8" fill="#FFE5BA" />
<rect x="416" y="368" width="8" height="8" fill="#FFE5BA" />
<rect x="424" y="368" width="8" height="8" fill="#FFE5BA" />
<rect x="336" y="376" width="8" height="8" fill="#FFCABB" />
<rect x="344" y="376" width="8" height="8" fill="#FFCABB" />
<rect x="352" y="376" width="8" height="8" fill="#FFCABB" />
<rect x="360" y="376" width="8" height="8" fill="#FFCABB" />
<rect x="368" y="376" width="8" height="8" fill="#FFCABB" />
<rect x="376" y="376" width="8" height="8" fill="#FFCABB" />
<rect x="384" y="376" width="8" height="8" fill="#FFE5BA" />
<rect x="392" y="376" width="8" height="8" fill="#FFE5BA" />
<rect x="400" y="376" width="8" height="8" fill="#FFE5BA" />
<rect x="408" y="376" width="8" height="8" fill="#FFE5BA" />
<rect x="416" y="376" width="8" height="8" fill="#FFE5BA" />
<rect x="424" y="376" width="8" height="8" fill="#FFE5BA" />
<rect x="352" y="384" width="8" height="8" fill="#FFCABB" />
<rect x="360" y="384" width="8" height="8" fill="#FFCABB" />
<rect x="368" y="384" width="8" height="8" fill="#FFE5BA" />
<rect x="376" y="384" width="8" height="8" fill="#FFE5BA" />
<rect x="384" y="384" width="8" height="8" fill="#FFE5BA" />
<rect x="392" y="384" width="8" height="8" fill="#FFE5BA" />
<rect x="400" y="384" width="8" height="8" fill="#FFE5BA" />
<rect x="408" y="384" width="8" height="8" fill="#FFE5BA" />
<rect x="416" y="384" width="8" height="8" fill="#FFE5BA" />
<rect x="424" y="384" width="8" height="8" fill="#FFE5BA" />
<rect x="432" y="384" width="8" height="8" fill="#FFE5BA" />
<rect x="440" y="384" width="8" height="8" fill="#FFE5BA" />
<rect x="448" y="384" width="8" height="8" fill="#FFE5BA" />
<rect x="456" y="384" width="8" height="8" fill="#FFE5BA" />
<rect x="352" y="392" width="8" height="8" fill="#FFCABB" />
<rect x="360" y="392" width="8" height="8" fill="#FFCABB" />
<rect x="368" y="392" width="8" height="8" fill="#FFE5BA" />
<rect x="376" y="392" width="8" height="8" fill="#FFE5BA" />
<rect x="384" y="392" width="8" height="8" fill="#FFE5BA" />
<rect x="392" y="392" width="8" height="8" fill="#FFE5BA" />
<rect x="400" y="392" width="8" height="8" fill="#FFE5BA" />
<rect x="408" y="392" width="8" height="8" fill="#FFE5BA" />
<rect x="416" y="392" width="8" height="8" fill="#FFE5BA" />
<rect x="424" y="392" width="8" height="8" fill="#FFE5BA" />
<rect x="432" y="392" width="8" height="8" fill="#FFE5BA" />
<rect x="440" y="392" width="8" height="8" fill="#FFE5BA" />
<rect x="448" y="392" width="8" height="8" fill="#FFE5BA" />
<rect x="456" y="392" width="8" height="8" fill="#FFE5BA" />
<rect x="352" y="400" width="8" height="8" fill="#FFE5BA" />
<rect x="360" y="400" width="8" height="8" fill="#FFE5BA" />
<rect x="368" y="400" width="8" height="8" fill="#FFE5BA" />
<rect x="376" y="400" width="8" height="8" fill="#FFE5BA" />
<rect x="384" y="400" width="8" height="8" fill="#FFE5BA" />
<rect x="392" y="400" width="8" height="8" fill="#FFE5BA" />
<rect x="400" y="400" width="8" height="8" fill="#FFE5BA" />
<rect x="408" y="400" width="8" height="8" fill="#FFE5BA" />
<rect x="416" y="400" width="8" height="8" fill="#FFE5BA" />
<rect x="424" y="400" width="8" height="8" fill="#FFE5BA" />
<rect x="432" y="400" width="8" height="8" fill="#FFE5BA" />
<rect x="440" y="400" width="8" height="8" fill="#FFE5BA" />
<rect x="448" y="400" width="8" height="8" fill="#FFE5BA" />
<rect x="456" y="400" width="8" height="8" fill="#FFE5BA" />
<rect x="464" y="400" width="8" height="8" fill="#FFE5BA" />
<rect x="472" y="400" width="8" height="8" fill="#FFE5BA" />
<rect x="480" y="400" width="8" height="8" fill="#FFE5BA" />
<rect x="488" y="400" width="8" height="8" fill="#FFE5BA" />
<rect x="352" y="408" width="8" height="8" fill="#FFE5BA" />
<rect x="360" y="408" width="8" height="8" fill="#FFE5BA" />
<rect x="368" y="408" width="8" height="8" fill="#FFE5BA" />
<rect x="376" y="408" width="8" height="8" fill="#FFE5BA" />
<rect x="384" y="408" width="8" height="8" fill="#FFE5BA" />
<rect x="392" y="408" width="8" height="8" fill="#FFE5BA" />
<rect x="400" y="408" width="8" height="8" fill="#FFE5BA" />
<rect x="408" y="408" width="8" height="8" fill="#FFE5BA" />
<rect x="416" y="408" width="8" height="8" fill="#FFE5BA" />
<rect x="424" y="408" width="8" height="8" fill="#FFE5BA" />
<rect x="432" y="408" width="8" height="8" fill="#FFE5BA" />
<rect x="440" y="408" width="8" height="8" fill="#FFE5BA" />
<rect x="448" y="408" width="8" height="8" fill="#FFE5BA" />
<rect x="456" y="408" width="8" height="8" fill="#FFE5BA" />
<rect x="464" y="408" width="8" height="8" fill="#FFE5BA" />
<rect x="472" y="408" width="8" height="8" fill="#FFE5BA" />
<rect x="480" y="408" width="8" height="8" fill="#FFE5BA" />
<rect x="488" y="408" width="8" height="8" fill="#FFE5BA" />
<rect x="368" y="416" width="8" height="8" fill="#FFE5BA" />
<rect x="376" y="416" width="8" height="8" fill="#FFE5BA" />
<rect x="384" y="416" width="8" height="8" fill="#FFE5BA" />
<rect x="392" y="416" width="8" height="8" fill="#FFE5BA" />
<rect x="400" y="416" width="8" height="8" fill="#FFE5BA" />
<rect x="408" y="416" width="8" height="8" fill="#FFE5BA" />
<rect x="416" y="416" width="8" height="8" fill="#FFE5BA" />
<rect x="424" y="416" width="8" height="8" fill="#FFE5BA" />
<rect x="432" y="416" width="8" height="8" fill="#FFE5BA" />
<rect x="440" y="416" width="8" height="8" fill="#FFE5BA" />
<rect x="448" y="416" width="8" height="8" fill="#FFE5BA" />
<rect x="456" y="416" width="8" height="8" fill="#FFE5BA" />
<rect x="464" y="416" width="8" height="8" fill="#FFE5BA" />
<rect x="472" y="416" width="8" height="8" fill="#FFE5BA" />
<rect x="480" y="416" width="8" height="8" fill="#FFE5BA" />
<rect x="488" y="416" width="8" height="8" fill="#FFE5BA" />
<rect x="496" y="416" width="8" height="8" fill="#FFCC79" />
<rect x="504" y="416" width="8" height="8" fill="#FFCC79" />
<rect x="368" y="424" width="8" height="8" fill="#FFE5BA" />
<rect x="376" y="424" width="8" height="8" fill="#FFE5BA" />
<rect x="384" y="424" width="8" height="8" fill="#FFE5BA" />
<rect x="392" y="424" width="8" height="8" fill="#FFE5BA" />
<rect x="400" y="424" width="8" height="8" fill="#FFE5BA" />
<rect x="408" y="424" width="8" height="8" fill="#FFE5BA" />
<rect x="416" y="424" width="8" height="8" fill="#FFE5BA" />
<rect x="424" y="424" width="8" height="8" fill="#FFE5BA" />
<rect x="432" y="424" width="8" height="8" fill="#FFE5BA" />
<rect x="440" y="424" width="8" height="8" fill="#FFE5BA" />
<rect x="448" y="424" width="8" height="8" fill="#FFE5BA" />
<rect x="456" y="424" width="8" height="8" fill="#FFE5BA" />
<rect x="464" y="424" width="8" height="8" fill="#FFE5BA" />
<rect x="472" y="424" width="8" height="8" fill="#FFE5BA" />
<rect x="480" y="424" width="8" height="8" fill="#FFE5BA" />
<rect x="488" y="424" width="8" height="8" fill="#FFE5BA" />
<rect x="496" y="424" width="8" height="8" fill="#FFCC79" />
<rect x="504" y="424" width="8" height="8" fill="#FFCC79" />
<rect x="384" y="432" width="8" height="8" fill="#FFE5BA" />
<rect x="392" y="432" width="8" height="8" fill="#FFE5BA" />
<rect x="400" y="432" width="8" height="8" fill="#FFE5BA" />
<rect x="408" y="432" width="8" height="8" fill="#FFE5BA" />
<rect x="416" y="432" width="8" height="8" fill="#FFE5BA" />
<rect x="424" y="432" width="8" height="8" fill="#FFE5BA" />
<rect x="432" y="432" width="8" height="8" fill="#FFE5BA" />
<rect x="440" y="432" width="8" height="8" fill="#FFE5BA" />
<rect x="448" y="432" width="8" height="8" fill="#FFE5BA" />
<rect x="456" y="432" width="8" height="8" fill="#FFE5BA" />
<rect x="464" y="432" width="8" height="8" fill="#FFE5BA" />
<rect x="472" y="432" width="8" height="8" fill="#FFE5BA" />
<rect x="480" y="432" width="8" height="8" fill="#FFCC79" />
<rect x="488" y="432" width="8" height="8" fill="#FFCC79" />
<rect x="384" y="440" width="8" height="8" fill="#FFE5BA" />
<rect x="392" y="440" width="8" height="8" fill="#FFE5BA" />
<rect x="400" y="440" width="8" height="8" fill="#FFE5BA" />
<rect x="408" y="440" width="8" height="8" fill="#FFE5BA" />
<rect x="416" y="440" width="8" height="8" fill="#FFE5BA" />
<rect x="424" y="440" width="8" height="8" fill="#FFE5BA" />
<rect x="432" y="440" width="8" height="8" fill="#FFE5BA" />
<rect x="440" y="440" width="8" height="8" fill="#FFE5BA" />
<rect x="448" y="440" width="8" height="8" fill="#FFE5BA" />
<rect x="456" y="440" width="8" height="8" fill="#FFE5BA" />
<rect x="464" y="440" width="8" height="8" fill="#FFE5BA" />
<rect x="472" y="440" width="8" height="8" fill="#FFE5BA" />
<rect x="480" y="440" width="8" height="8" fill="#FFCC79" />
<rect x="488" y="440" width="8" height="8" fill="#FFCC79" />
<rect x="384" y="448" width="8" height="8" fill="#FFE5BA" />
<rect x="392" y="448" width="8" height="8" fill="#FFE5BA" />
<rect x="400" y="448" width="8" height="8" fill="#FFE5BA" />
<rect x="408" y="448" width="8" height="8" fill="#FFE5BA" />
<rect x="416" y="448" width="8" height="8" fill="#FFE5BA" />
<rect x="424" y="448" width="8" height="8" fill="#FFE5BA" />
<rect x="432" y="448" width="8" height="8" fill="#FFE5BA" />
<rect x="440" y="448" width="8" height="8" fill="#FFE5BA" />
<rect x="448" y="448" width="8" height="8" fill="#FFE5BA" />
<rect x="456" y="448" width="8" height="8" fill="#FFE5BA" />
<rect x="464" y="448" width="8" height="8" fill="#FFCC79" />
<rect x="472" y="448" width="8" height="8" fill="#FFCC79" />
<rect x="384" y="456" width="8" height="8" fill="#FFE5BA" />
<rect x="392" y="456" width="8" height="8" fill="#FFE5BA" />
<rect x="400" y="456" width="8" height="8" fill="#FFE5BA" />
<rect x="408" y="456" width="8" height="8" fill="#FFE5BA" />
<rect x="416" y="456" width="8" height="8" fill="#FFE5BA" />
<rect x="424" y="456" width="8" height="8" fill="#FFE5BA" />
<rect x="432" y="456" width="8" height="8" fill="#FFE5BA" />
<rect x="440" y="456" width="8" height="8" fill="#FFE5BA" />
<rect x="448" y="456" width="8" height="8" fill="#FFE5BA" />
<rect x="456" y="456" width="8" height="8" fill="#FFE5BA" />
<rect x="464" y="456" width="8" height="8" fill="#FFCC79" />
<rect x="472" y="456" width="8" height="8" fill="#FFCC79" />
<rect x="400" y="464" width="8" height="8" fill="#FFE5BA" />
<rect x="408" y="464" width="8" height="8" fill="#FFE5BA" />
<rect x="416" y="464" width="8" height="8" fill="#FFE5BA" />
<rect x="424" y="464" width="8" height="8" fill="#FFE5BA" />
<rect x="432" y="464" width="8" height="8" fill="#FFE5BA" />
<rect x="440" y="464" width="8" height="8" fill="#FFE5BA" />
<rect x="448" y="464" width="8" height="8" fill="#FFCC79" />
<rect x="456" y="464" width="8" height="8" fill="#FFCC79" />
<rect x="400" y="472" width="8" height="8" fill="#FFE5BA" />
<rect x="408" y="472" width="8" height="8" fill="#FFE5BA" />
<rect x="416" y="472" width="8" height="8" fill="#FFE5BA" />
<rect x="424" y="472" width="8" height="8" fill="#FFE5BA" />
<rect x="432" y="472" width="8" height="8" fill="#FFE5BA" />
<rect x="440" y="472" width="8" height="8" fill="#FFE5BA" />
<rect x="448" y="472" width="8" height="8" fill="#FFCC79" />
<rect x="456" y="472" width="8" height="8" fill="#FFCC79" />
<rect x="400" y="480" width="8" height="8" fill="#FFE5BA" />
<rect x="408" y="480" width="8" height="8" fill="#FFE5BA" />
<rect x="416" y="480" width="8" height="8" fill="#FFE5BA" />
<rect x="424" y="480" width="8" height="8" fill="#FFE5BA" />
<rect x="432" y="480" width="8" height="8" fill="#FFCC79" />
<rect x="440" y="480" width="8" height="8" fill="#FFCC79" />
<rect x="400" y="488" width="8" height="8" fill="#FFE5BA" />
<rect x="408" y="488" width="8" height="8" fill="#FFE5BA" />
<rect x="416" y="488" width="8" height="8" fill="#FFE5BA" />
<rect x="424" y="488" width="8" height="8" fill="#FFE5BA" />
<rect x="432" y="488" width="8" height="8" fill="#FFCC79" />
<rect x="440" y="488" width="8" height="8" fill="#FFCC79" />
<rect x="416" y="496" width="8" height="8" fill="#FFCC79" />
<rect x="424" y="496" width="8" height="8" fill="#FFCC79" />
<rect x="416" y="504" width="8" height="8" fill="#FFCC79" />
<rect x="424" y="504" width="8" height="8" fill="#FFCC79" />
</svg>