<?xml version="1.0" encoding="UTF-8" ?>
<svg version="1.1" width="512" height="512" xmlns="http://www.w3.org/2000/svg" shape-rendering="crispEdges">
<rect x="176" y="160" width="8" height="8" fill="#EBAEBC" />
<rect x="184" y="160" width="8" height="8" fill="#EBAEBC" />
<rect x="192" y="160" width="8" height="8" fill="#EBAEBC" />
<rect x="200" y="160" width="8" height="8" fill="#EBAEBC" />
<rect x="304" y="160" width="8" height="8" fill="#EBAEBC" />
<rect x="312" y="160" width="8" height="8" fill="#EBAEBC" />
<rect x="320" y="160" width="8" height="8" fill="#EBAEBC" />
<rect x="328" y="160" width="8" height="8" fill="#EBAEBC" />
<rect x="160" y="168" width="8" height="8" fill="#EBAEBC" />
<rect x="168" y="168" width="8" height="8" fill="#EBAEBC" />
<rect x="176" y="168" width="8" height="8" fill="#EBAEBC" />
<rect x="184" y="168" width="8" height="8" fill="#EBAEBC" />
<rect x="192" y="168" width="8" height="8" fill="#EBAEBC" />
<rect x="200" y="168" width="8" height="8" fill="#EBAEBC" />
<rect x="208" y="168" width="8" height="8" fill="#EBAEBC" />
<rect x="216" y="168" width="8" height="8" fill="#EBAEBC" />
<rect x="288" y="168" width="8" height="8" fill="#EBAEBC" />
<rect x="296" y="168" width="8" height="8" fill="#EBAEBC" />
<rect x="304" y="168" width="8" height="8" fill="#EBAEBC" />
<rect x="312" y="168" width="8" height="8" fill="#EBAEBC" />
<rect x="320" y="168" width="8" height="8" fill="#EBAEBC" />
<rect x="328" y="168" width="8" height="8" fill="#EBAEBC" />
<rect x="336" y="168" width="8" height="8" fill="#EBAEBC" />
<rect x="344" y="168" width="8" height="8" fill="#EBAEBC" />
<rect x="152" y="176" width="8" height="8" fill="#EBAEBC" />
<rect x="160" y="176" width="8" height="8" fill="#EBAEBC" />
<rect x="168" y="176" width="8" height="8" fill="#EBAEBC" />
<rect x="176" y="176" width="8" height="8" fill="#EBAEBC" />
<rect x="184" y="176" width="8" height="8" fill="#EBAEBC" />
<rect x="192" y="176" width="8" height="8" fill="#EBAEBC" />
<rect x="200" y="176" width="8" height="8" fill="#EBAEBC" />
<rect x="208" y="176" width="8" height="8" fill="#EBAEBC" />
<rect x="216" y="176" width="8" height="8" fill="#EBAEBC" />
<rect x="224" y="176" width="8" height="8" fill="#EBAEBC" />
<rect x="280" y="176" width="8" height="8" fill="#EBAEBC" />
<rect x="288" y="176" width="8" height="8" fill="#EBAEBC" />
<rect x="296" y="176" width="8" height="8" fill="#EBAEBC" />
<rect x="304" y="176" width="8" height="8" fill="#EBAEBC" />
<rect x="312" y="176" width="8" height="8" fill="#EBAEBC" />
<rect x="320" y="176" width="8" height="8" fill="#EBAEBC" />
<rect x="328" y="176" width="8" height="8" fill="#EBAEBC" />
<rect x="336" y="176" width="8" height="8" fill="#EBAEBC" />
<rect x="344" y="176" width="8" height="8" fill="#EBAEBC" />
<rect x="352" y="176" width="8" height="8" fill="#EBAEBC" />
<rect x="144" y="184" width="8" height="8" fill="#EBAEBC" />
<rect x="152" y="184" width="8" height="8" fill="#EBAEBC" />
<rect x="160" y="184" width="8" height="8" fill="#EBAEBC" />
<rect x="168" y="184" width="8" height="8" fill="#EBAEBC" />
<rect x="176" y="184" width="8" height="8" fill="#EBAEBC" />
<rect x="184" y="184" width="8" height="8" fill="#EBAEBC" />
<rect x="192" y="184" width="8" height="8" fill="#EBAEBC" />
<rect x="200" y="184" width="8" height="8" fill="#EBAEBC" />
<rect x="208" y="184" width="8" height="8" fill="#EBAEBC" />
<rect x="216" y="184" width="8" height="8" fill="#EBAEBC" />
<rect x="224" y="184" width="8" height="8" fill="#EBAEBC" />
<rect x="232" y="184" width="8" height="8" fill="#EBAEBC" />
<rect x="272" y="184" width="8" height="8" fill="#EBAEBC" />
<rect x="280" y="184" width="8" height="8" fill="#EBAEBC" />
<rect x="288" y="184" width="8" height="8" fill="#EBAEBC" />
<rect x="296" y="184" width="8" height="8" fill="#EBAEBC" />
<rect x="304" y="184" width="8" height="8" fill="#EBAEBC" />
<rect x="312" y="184" width="8" height="8" fill="#EBAEBC" />
<rect x="320" y="184" width="8" height="8" fill="#EBAEBC" />
<rect x="328" y="184" width="8" height="8" fill="#EBAEBC" />
<rect x="336" y="184" width="8" height="8" fill="#EBAEBC" />
<rect x="344" y="184" width="8" height="8" fill="#EBAEBC" />
<rect x="352" y="184" width="8" height="8" fill="#EBAEBC" />
<rect x="360" y="184" width="8" height="8" fill="#EBAEBC" />
<rect x="136" y="192" width="8" height="8" fill="#EBAEBC" />
<rect x="144" y="192" width="8" height="8" fill="#EBAEBC" />
<rect x="152" y="192" width="8" height="8" fill="#EBAEBC" />
<rect x="160" y="192" width="8" height="8" fill="#EBAEBC" />
<rect x="168" y="192" width="8" height="8" fill="#EBAEBC" />
<rect x="176" y="192" width="8" height="8" fill="#EBAEBC" />
<rect x="184" y="192" width="8" height="8" fill="#EBAEBC" />
<rect x="192" y="192" width="8" height="8" fill="#EBAEBC" />
<rect x="200" y="192" width="8" height="8" fill="#EBAEBC" />
<rect x="208" y="192" width="8" height="8" fill="#EBAEBC" />
<rect x="216" y="192" width="8" height="8" fill="#EBAEBC" />
<rect x="224" y="192" width="8" height="8" fill="#EBAEBC" />
<rect x="232" y="192" width="8" height="8" fill="#EBAEBC" />
<rect x="240" y="192" width="8" height="8" fill="#EBAEBC" />
<rect x="264" y="192" width="8" height="8" fill="#EBAEBC" />
<rect x="272" y="192" width="8" height="8" fill="#EBAEBC" />
<rect x="280" y="192" width="8" height="8" fill="#EBAEBC" />
<rect x="288" y="192" width="8" height="8" fill="#EBAEBC" />
<rect x="296" y="192" width="8" height="8" fill="#EBAEBC" />
<rect x="304" y="192" width="8" height="8" fill="#EBAEBC" />
<rect x="312" y="192" width="8" height="8" fill="#EBAEBC" />
<rect x="320" y="192" width="8" height="8" fill="#EBAEBC" />
<rect x="328" y="192" width="8" height="8" fill="#EBAEBC" />
<rect x="336" y="192" width="8" height="8" fill="#EBAEBC" />
<rect x="344" y="192" width="8" height="8" fill="#EBAEBC" />
<rect x="352" y="192" width="8" height="8" fill="#EBAEBC" />
<rect x="360" y="192" width="8" height="8" fill="#EBAEBC" />
<rect x="368" y="192" width="8" height="8" fill="#EBAEBC" />
<rect x="136" y="200" width="8" height="8" fill="#EBAEBC" />
<rect x="144" y="200" width="8" height="8" fill="#EBAEBC" />
<rect x="152" y="200" width="8" height="8" fill="#EBAEBC" />
<rect x="160" y="200" width="8" height="8" fill="#EBAEBC" />
<rect x="168" y="200" width="8" height="8" fill="#EBAEBC" />
<rect x="176" y="200" width="8" height="8" fill="#EBAEBC" />
<rect x="184" y="200" width="8" height="8" fill="#EBAEBC" />
<rect x="192" y="200" width="8" height="8" fill="#EBAEBC" />
<rect x="200" y="200" width="8" height="8" fill="#EBAEBC" />
<rect x="208" y="200" width="8" height="8" fill="#EBAEBC" />
<rect x="216" y="200" width="8" height="8" fill="#EBAEBC" />
<rect x="224" y="200" width="8" height="8" fill="#EBAEBC" />
<rect x="232" y="200" width="8" height="8" fill="#EBAEBC" />
<rect x="240" y="200" width="8" height="8" fill="#EBAEBC" />
<rect x="248" y="200" width="8" height="8" fill="#EBAEBC" />
<rect x="256" y="200" width="8" height="8" fill="#EBAEBC" />
<rect x="264" y="200" width="8" height="8" fill="#EBAEBC" />
<rect x="272" y="200" width="8" height="8" fill="#EBAEBC" />
<rect x="280" y="200" width="8" height="8" fill="#EBAEBC" />
<rect x="288" y="200" width="8" height="8" fill="#EBAEBC" />
<rect x="296" y="200" width="8" height="8" fill="#EBAEBC" />
<rect x="304" y="200" width="8" height="8" fill="#EBAEBC" />
<rect x="312" y="200" width="8" height="8" fill="#EBAEBC" />
<rect x="320" y="200" width="8" height="8" fill="#EBAEBC" />
<rect x="328" y="200" width="8" height="8" fill="#EBAEBC" />
<rect x="336" y="200" width="8" height="8" fill="#EBAEBC" />
<rect x="344" y="200" width="8" height="8" fill="#EBAEBC" />
<rect x="352" y="200" width="8" height="8" fill="#EBAEBC" />
<rect x="360" y="200" width="8" height="8" fill="#EBAEBC" />
<rect x="368" y="200" width="8" height="8" fill="#EBAEBC" />
<rect x="128" y="208" width="8" height="8" fill="#EBAEBC" />
<rect x="136" y="208" width="8" height="8" fill="#EBAEBC" />
<rect x="144" y="208" width="8" height="8" fill="#EBAEBC" />
<rect x="152" y="208" width="8" height="8" fill="#EBAEBC" />
<rect x="160" y="208" width="8" height="8" fill="#EBAEBC" />
<rect x="168" y="208" width="8" height="8" fill="#EBAEBC" />
<rect x="176" y="208" width="8" height="8" fill="#EBAEBC" />
<rect x="184" y="208" width="8" height="8" fill="#FFCBD7" />
<rect x="192" y="208" width="8" height="8" fill="#FFCBD7" />
<rect x="200" y="208" width="8" height="8" fill="#FFCBD7" />
<rect x="208" y="208" width="8" height="8" fill="#FFCBD7" />
<rect x="216" y="208" width="8" height="8" fill="#EBAEBC" />
<rect x="224" y="208" width="8" height="8" fill="#EBAEBC" />
<rect x="232" y="208" width="8" height="8" fill="#EBAEBC" />
<rect x="240" y="208" width="8" height="8" fill="#EBAEBC" />
<rect x="248" y="208" width="8" height="8" fill="#EBAEBC" />
<rect x="256" y="208" width="8" height="8" fill="#EBAEBC" />
<rect x="264" y="208" width="8" height="8" fill="#EBAEBC" />
<rect x="272" y="208" width="8" height="8" fill="#EBAEBC" />
<rect x="280" y="208" width="8" height="8" fill="#EBAEBC" />
<rect x="288" y="208" width="8" height="8" fill="#EBAEBC" />
<rect x="296" y="208" width="8" height="8" fill="#FFCBD7" />
<rect x="304" y="208" width="8" height="8" fill="#FFCBD7" />
<rect x="312" y="208" width="8" height="8" fill="#FFCBD7" />
<rect x="320" y="208" width="8" height="8" fill="#FFCBD7" />
<rect x="328" y="208" width="8" height="8" fill="#EBAEBC" />
<rect x="336" y="208" width="8" height="8" fill="#EBAEBC" />
<rect x="344" y="208" width="8" height="8" fill="#EBAEBC" />
<rect x="352" y="208" width="8" height="8" fill="#EBAEBC" />
<rect x="360" y="208" width="8" height="8" fill="#EBAEBC" />
<rect x="368" y="208" width="8" height="8" fill="#EBAEBC" />
<rect x="376" y="208" width="8" height="8" fill="#EBAEBC" />
<rect x="128" y="216" width="8" height="8" fill="#EBAEBC" />
<rect x="136" y="216" width="8" height="8" fill="#EBAEBC" />
<rect x="144" y="216" width="8" height="8" fill="#EBAEBC" />
<rect x="152" y="216" width="8" height="8" fill="#EBAEBC" />
<rect x="160" y="216" width="8" height="8" fill="#EBAEBC" />
<rect x="168" y="216" width="8" height="8" fill="#EBAEBC" />
<rect x="176" y="216" width="8" height="8" fill="#FFCBD7" />
<rect x="184" y="216" width="8" height="8" fill="#FFCBD7" />
<rect x="192" y="216" width="8" height="8" fill="#FFCBD7" />
<rect x="200" y="216" width="8" height="8" fill="#FFCBD7" />
<rect x="208" y="216" width="8" height="8" fill="#FFCBD7" />
<rect x="216" y="216" width="8" height="8" fill="#FFCBD7" />
<rect x="224" y="216" width="8" height="8" fill="#EBAEBC" />
<rect x="232" y="216" width="8" height="8" fill="#EBAEBC" />
<rect x="240" y="216" width="8" height="8" fill="#EBAEBC" />
<rect x="248" y="216" width="8" height="8" fill="#EBAEBC" />
<rect x="256" y="216" width="8" height="8" fill="#EBAEBC" />
<rect x="264" y="216" width="8" height="8" fill="#EBAEBC" />
<rect x="272" y="216" width="8" height="8" fill="#EBAEBC" />
<rect x="280" y="216" width="8" height="8" fill="#EBAEBC" />
<rect x="288" y="216" width="8" height="8" fill="#FFCBD7" />
<rect x="296" y="216" width="8" height="8" fill="#FFCBD7" />
<rect x="304" y="216" width="8" height="8" fill="#FFCBD7" />
<rect x="312" y="216" width="8" height="8" fill="#FFCBD7" />
<rect x="320" y="216" width="8" height="8" fill="#FFCBD7" />
<rect x="328" y="216" width="8" height="8" fill="#FFCBD7" />
<rect x="336" y="216" width="8" height="8" fill="#EBAEBC" />
<rect x="344" y="216" width="8" height="8" fill="#EBAEBC" />
<rect x="352" y="216" width="8" height="8" fill="#EBAEBC" />
<rect x="360" y="216" width="8" height="8" fill="#EBAEBC" />
<rect x="368" y="216" width="8" height="8" fill="#EBAEBC" />
<rect x="376" y="216" width="8" height="8" fill="#EBAEBC" />
<rect x="128" y="224" width="8" height="8" fill="#EBAEBC" />
<rect x="136" y="224" width="8" height="8" fill="#EBAEBC" />
<rect x="144" y="224" width="8" height="8" fill="#EBAEBC" />
<rect x="152" y="224" width="8" height="8" fill="#EBAEBC" />
<rect x="160" y="224" width="8" height="8" fill="#EBAEBC" />
<rect x="168" y="224" width="8" height="8" fill="#FFCBD7" />
<rect x="176" y="224" width="8" height="8" fill="#FFCBD7" />
<rect x="184" y="224" width="8" height="8" fill="#FFCBD7" />
<rect x="192" y="224" width="8" height="8" fill="#FFCBD7" />
<rect x="200" y="224" width="8" height="8" fill="#FFCBD7" />
<rect x="208" y="224" width="8" height="8" fill="#FFCBD7" />
<rect x="216" y="224" width="8" height="8" fill="#FFCBD7" />
<rect x="224" y="224" width="8" height="8" fill="#FFCBD7" />
<rect x="232" y="224" width="8" height="8" fill="#EBAEBC" />
<rect x="240" y="224" width="8" height="8" fill="#EBAEBC" />
<rect x="248" y="224" width="8" height="8" fill="#EBAEBC" />
<rect x="256" y="224" width="8" height="8" fill="#EBAEBC" />
<rect x="264" y="224" width="8" height="8" fill="#EBAEBC" />
<rect x="272" y="224" width="8" height="8" fill="#EBAEBC" />
<rect x="280" y="224" width="8" height="8" fill="#FFCBD7" />
<rect x="288" y="224" width="8" height="8" fill="#FFCBD7" />
<rect x="296" y="224" width="8" height="8" fill="#FFCBD7" />
<rect x="304" y="224" width="8" height="8" fill="#FFCBD7" />
<rect x="312" y="224" width="8" height="8" fill="#FFCBD7" />
<rect x="320" y="224" width="8" height="8" fill="#FFCBD7" />
<rect x="328" y="224" width="8" height="8" fill="#FFCBD7" />
<rect x="336" y="224" width="8" height="8" fill="#FFCBD7" />
<rect x="344" y="224" width="8" height="8" fill="#EBAEBC" />
<rect x="352" y="224" width="8" height="8" fill="#EBAEBC" />
<rect x="360" y="224" width="8" height="8" fill="#EBAEBC" />
<rect x="368" y="224" width="8" height="8" fill="#EBAEBC" />
<rect x="376" y="224" width="8" height="8" fill="#EBAEBC" />
<rect x="128" y="232" width="8" height="8" fill="#EBAEBC" />
<rect x="136" y="232" width="8" height="8" fill="#EBAEBC" />
<rect x="144" y="232" width="8" height="8" fill="#EBAEBC" />
<rect x="152" y="232" width="8" height="8" fill="#EBAEBC" />
<rect x="160" y="232" width="8" height="8" fill="#FFCBD7" />
<rect x="168" y="232" width="8" height="8" fill="#FFCBD7" />
<rect x="176" y="232" width="8" height="8" fill="#FFCBD7" />
<rect x="184" y="232" width="8" height="8" fill="#FFCBD7" />
<rect x="192" y="232" width="8" height="8" fill="#FFCBD7" />
<rect x="200" y="232" width="8" height="8" fill="#FFCBD7" />
<rect x="208" y="232" width="8" height="8" fill="#FFCBD7" />
<rect x="216" y="232" width="8" height="8" fill="#FFCBD7" />
<rect x="224" y="232" width="8" height="8" fill="#FFCBD7" />
<rect x="232" y="232" width="8" height="8" fill="#FFCBD7" />
<rect x="240" y="232" width="8" height="8" fill="#EBAEBC" />
<rect x="248" y="232" width="8" height="8" fill="#EBAEBC" />
<rect x="256" y="232" width="8" height="8" fill="#EBAEBC" />
<rect x="264" y="232" width="8" height="8" fill="#EBAEBC" />
<rect x="272" y="232" width="8" height="8" fill="#FFCBD7" />
<rect x="280" y="232" width="8" height="8" fill="#FFCBD7" />
<rect x="288" y="232" width="8" height="8" fill="#FFCBD7" />
<rect x="296" y="232" width="8" height="8" fill="#FFCBD7" />
<rect x="304" y="232" width="8" height="8" fill="#FFCBD7" />
<rect x="312" y="232" width="8" height="8" fill="#FFCBD7" />
<rect x="320" y="232" width="8" height="8" fill="#FFCBD7" />
<rect x="328" y="232" width="8" height="8" fill="#FFCBD7" />
<rect x="336" y="232" width="8" height="8" fill="#FFCBD7" />
<rect x="344" y="232" width="8" height="8" fill="#FFCBD7" />
<rect x="352" y="232" width="8" height="8" fill="#EBAEBC" />
<rect x="360" y="232" width="8" height="8" fill="#EBAEBC" />
<rect x="368" y="232" width="8" height="8" fill="#EBAEBC" />
<rect x="376" y="232" width="8" height="8" fill="#EBAEBC" />
<rect x="128" y="240" width="8" height="8" fill="#EBAEBC" />
<rect x="136" y="240" width="8" height="8" fill="#EBAEBC" />
<rect x="144" y="240" width="8" height="8" fill="#EBAEBC" />
<rect x="152" y="240" width="8" height="8" fill="#EBAEBC" />
<rect x="160" y="240" width="8" height="8" fill="#FFCBD7" />
<rect x="168" y="240" width="8" height="8" fill="#FFCBD7" />
<rect x="176" y="240" width="8" height="8" fill="#FFCBD7" />
<rect x="184" y="240" width="8" height="8" fill="#FFCBD7" />
<rect x="192" y="240" width="8" height="8" fill="#FFCBD7" />
<rect x="200" y="240" width="8" height="8" fill="#FFCBD7" />
<rect x="208" y="240" width="8" height="8" fill="#FFCBD7" />
<rect x="216" y="240" width="8" height="8" fill="#FFCBD7" />
<rect x="224" y="240" width="8" height="8" fill="#FFCBD7" />
<rect x="232" y="240" width="8" height="8" fill="#FFCBD7" />
<rect x="240" y="240" width="8" height="8" fill="#FFCBD7" />
<rect x="248" y="240" width="8" height="8" fill="#EBAEBC" />
<rect x="256" y="240" width="8" height="8" fill="#EBAEBC" />
<rect x="264" y="240" width="8" height="8" fill="#FFCBD7" />
<rect x="272" y="240" width="8" height="8" fill="#FFCBD7" />
<rect x="280" y="240" width="8" height="8" fill="#FFCBD7" />
<rect x="288" y="240" width="8" height="8" fill="#FFCBD7" />
<rect x="296" y="240" width="8" height="8" fill="#FFCBD7" />
<rect x="304" y="240" width="8" height="8" fill="#FFCBD7" />
<rect x="312" y="240" width="8" height="8" fill="#FFCBD7" />
<rect x="320" y="240" width="8" height="8" fill="#FFCBD7" />
<rect x="328" y="240" width="8" height="8" fill="#FFCBD7" />
<rect x="336" y="240" width="8" height="8" fill="#FFCBD7" />
<rect x="344" y="240" width="8" height="8" fill="#FFCBD7" />
<rect x="352" y="240" width="8" height="8" fill="#EBAEBC" />
<rect x="360" y="240" width="8" height="8" fill="#EBAEBC" />
<rect x="368" y="240" width="8" height="8" fill="#EBAEBC" />
<rect x="376" y="240" width="8" height="8" fill="#EBAEBC" />
<rect x="128" y="248" width="8" height="8" fill="#EBAEBC" />
<rect x="136" y="248" width="8" height="8" fill="#EBAEBC" />
<rect x="144" y="248" width="8" height="8" fill="#EBAEBC" />
<rect x="152" y="248" width="8" height="8" fill="#EBAEBC" />
<rect x="160" y="248" width="8" height="8" fill="#FFCBD7" />
<rect x="168" y="248" width="8" height="8" fill="#FFCBD7" />
<rect x="176" y="248" width="8" height="8" fill="#FFCBD7" />
<rect x="184" y="248" width="8" height="8" fill="#FFCBD7" />
<rect x="192" y="248" width="8" height="8" fill="#FFCBD7" />
<rect x="200" y="248" width="8" height="8" fill="#FFCBD7" />
<rect x="208" y="248" width="8" height="8" fill="#FFCBD7" />
<rect x="216" y="248" width="8" height="8" fill="#FFCBD7" />
<rect x="224" y="248" width="8" height="8" fill="#FFCBD7" />
<rect x="232" y="248" width="8" height="8" fill="#FFCBD7" />
<rect x="240" y="248" width="8" height="8" fill="#FFCBD7" />
<rect x="248" y="248" width="8" height="8" fill="#FFCBD7" />
<rect x="256" y="248" width="8" height="8" fill="#FFCBD7" />
<rect x="264" y="248" width="8" height="8" fill="#FFCBD7" />
<rect x="272" y="248" width="8" height="8" fill="#FFCBD7" />
<rect x="280" y="248" width="8" height="8" fill="#FFCBD7" />
<rect x="288" y="248" width="8" height="8" fill="#FFCBD7" />
<rect x="296" y="248" width="8" height="8" fill="#FFCBD7" />
<rect x="304" y="248" width="8" height="8" fill="#FFCBD7" />
<rect x="312" y="248" width="8" height="8" fill="#FFCBD7" />
<rect x="320" y="248" width="8" height="8" fill="#FFCBD7" />
<rect x="328" y="248" width="8" height="8" fill="#FFCBD7" />
<rect x="336" y="248" width="8" height="8" fill="#FFCBD7" />
<rect x="344" y="248" width="8" height="8" fill="#FFCBD7" />
<rect x="352" y="248" width="8" height="8" fill="#EBAEBC" />
<rect x="360" y="248" width="8" height="8" fill="#EBAEBC" />
<rect x="368" y="248" width="8" height="8" fill="#EBAEBC" />
<rect x="376" y="248" width="8" height="8" fill="#EBAEBC" />
<rect x="128" y="256" width="8" height="8" fill="#EBAEBC" />
<rect x="136" y="256" width="8" height="8" fill="#EBAEBC" />
<rect x="144" y="256" width="8" height="8" fill="#EBAEBC" />
<rect x="152" y="256" width="8" height="8" fill="#EBAEBC" />
<rect x="160" y="256" width="8" height="8" fill="#FFCBD7" />
<rect x="168" y="256" width="8" height="8" fill="#FFCBD7" />
<rect x="176" y="256" width="8" height="8" fill="#FFCBD7" />
<rect x="184" y="256" width="8" height="8" fill="#FFCBD7" />
<rect x="192" y="256" width="8" height="8" fill="#FFCBD7" />
<rect x="200" y="256" width="8" height="8" fill="#FFCBD7" />
<rect x="208" y="256" width="8" height="8" fill="#FFCBD7" />
<rect x="216" y="256" width="8" height="8" fill="#FFCBD7" />
<rect x="224" y="256" width="8" height="8" fill="#FFCBD7" />
<rect x="232" y="256" width="8" height="8" fill="#FFCBD7" />
<rect x="240" y="256" width="8" height="8" fill="#FFCBD7" />
<rect x="248" y="256" width="8" height="8" fill="#FFCBD7" />
<rect x="256" y="256" width="8" height="8" fill="#FFCBD7" />
<rect x="264" y="256" width="8" height="8" fill="#FFCBD7" />
<rect x="272" y="256" width="8" height="8" fill="#FFCBD7" />
<rect x="280" y="256" width="8" height="8" fill="#FFCBD7" />
<rect x="288" y="256" width="8" height="8" fill="#FFCBD7" />
<rect x="296" y="256" width="8" height="8" fill="#FFCBD7" />
<rect x="304" y="256" width="8" height="8" fill="#FFCBD7" />
<rect x="312" y="256" width="8" height="8" fill="#FFCBD7" />
<rect x="320" y="256" width="8" height="8" fill="#FFCBD7" />
<rect x="328" y="256" width="8" height="8" fill="#FFCBD7" />
<rect x="336" y="256" width="8" height="8" fill="#FFCBD7" />
<rect x="344" y="256" width="8" height="8" fill="#FFCBD7" />
<rect x="352" y="256" width="8" height="8" fill="#EBAEBC" />
<rect x="360" y="256" width="8" height="8" fill="#EBAEBC" />
<rect x="368" y="256" width="8" height="8" fill="#EBAEBC" />
<rect x="376" y="256" width="8" height="8" fill="#EBAEBC" />
<rect x="136" y="264" width="8" height="8" fill="#EBAEBC" />
<rect x="144" y="264" width="8" height="8" fill="#EBAEBC" />
<rect x="152" y="264" width="8" height="8" fill="#EBAEBC" />
<rect x="160" y="264" width="8" height="8" fill="#EBAEBC" />
<rect x="168" y="264" width="8" height="8" fill="#FFCBD7" />
<rect x="176" y="264" width="8" height="8" fill="#FFCBD7" />
<rect x="184" y="264" width="8" height="8" fill="#FFCBD7" />
<rect x="192" y="264" width="8" height="8" fill="#FFCBD7" />
<rect x="200" y="264" width="8" height="8" fill="#FFCBD7" />
<rect x="208" y="264" width="8" height="8" fill="#FFCBD7" />
<rect x="216" y="264" width="8" height="8" fill="#FFCBD7" />
<rect x="224" y="264" width="8" height="8" fill="#FFCBD7" />
<rect x="232" y="264" width="8" height="8" fill="#FFCBD7" />
<rect x="240" y="264" width="8" height="8" fill="#FFCBD7" />
<rect x="248" y="264" width="8" height="8" fill="#FFCBD7" />
<rect x="256" y="264" width="8" height="8" fill="#FFCBD7" />
<rect x="264" y="264" width="8" height="8" fill="#FFCBD7" />
<rect x="272" y="264" width="8" height="8" fill="#FFCBD7" />
<rect x="280" y="264" width="8" height="8" fill="#FFCBD7" />
<rect x="288" y="264" width="8" height="8" fill="#FFCBD7" />
<rect x="296" y="264" width="8" height="8" fill="#FFCBD7" />
<rect x="304" y="264" width="8" height="8" fill="#FFCBD7" />
<rect x="312" y="264" width="8" height="8" fill="#FFCBD7" />
<rect x="320" y="264" width="8" height="8" fill="#FFCBD7" />
<rect x="328" y="264" width="8" height="8" fill="#FFCBD7" />
<rect x="336" y="264" width="8" height="8" fill="#FFCBD7" />
<rect x="344" y="264" width="8" height="8" fill="#EBAEBC" />
<rect x="352" y="264" width="8" height="8" fill="#EBAEBC" />
<rect x="360" y="264" width="8" height="8" fill="#EBAEBC" />
<rect x="368" y="264" width="8" height="8" fill="#EBAEBC" />
<rect x="144" y="272" width="8" height="8" fill="#EBAEBC" />
<rect x="152" y="272" width="8" height="8" fill="#EBAEBC" />
<rect x="160" y="272" width="8" height="8" fill="#EBAEBC" />
<rect x="168" y="272" width="8" height="8" fill="#EBAEBC" />
<rect x="176" y="272" width="8" height="8" fill="#FFCBD7" />
<rect x="184" y="272" width="8" height="8" fill="#FFCBD7" />
<rect x="192" y="272" width="8" height="8" fill="#FFCBD7" />
<rect x="200" y="272" width="8" height="8" fill="#FFCBD7" />
<rect x="208" y="272" width="8" height="8" fill="#FFCBD7" />
<rect x="216" y="272" width="8" height="8" fill="#FFCBD7" />
<rect x="224" y="272" width="8" height="8" fill="#FFCBD7" />
<rect x="232" y="272" width="8" height="8" fill="#FFCBD7" />
<rect x="240" y="272" width="8" height="8" fill="#FFCBD7" />
<rect x="248" y="272" width="8" height="8" fill="#FFCBD7" />
<rect x="256" y="272" width="8" height="8" fill="#FFCBD7" />
<rect x="264" y="272" width="8" height="8" fill="#FFCBD7" />
<rect x="272" y="272" width="8" height="8" fill="#FFCBD7" />
<rect x="280" y="272" width="8" height="8" fill="#FFCBD7" />
<rect x="288" y="272" width="8" height="8" fill="#FFCBD7" />
<rect x="296" y="272" width="8" height="8" fill="#FFCBD7" />
<rect x="304" y="272" width="8" height="8" fill="#FFCBD7" />
<rect x="312" y="272" width="8" height="8" fill="#FFCBD7" />
<rect x="320" y="272" width="8" height="8" fill="#FFCBD7" />
<rect x="328" y="272" width="8" height="8" fill="#FFCBD7" />
<rect x="336" y="272" width="8" height="8" fill="#EBAEBC" />
<rect x="344" y="272" width="8" height="8" fill="#EBAEBC" />
<rect x="352" y="272" width="8" height="8" fill="#EBAEBC" />
<rect x="360" y="272" width="8" height="8" fill="#EBAEBC" />
<rect x="152" y="280" width="8" height="8" fill="#EBAEBC" />
<rect x="160" y="280" width="8" height="8" fill="#EBAEBC" />
<rect x="168" y="280" width="8" height="8" fill="#EBAEBC" />
<rect x="176" y="280" width="8" height="8" fill="#EBAEBC" />
<rect x="184" y="280" width="8" height="8" fill="#FFCBD7" />
<rect x="192" y="280" width="8" height="8" fill="#FFCBD7" />
<rect x="200" y="280" width="8" height="8" fill="#FFCBD7" />
<rect x="208" y="280" width="8" height="8" fill="#FFCBD7" />
<rect x="216" y="280" width="8" height="8" fill="#FFCBD7" />
<rect x="224" y="280" width="8" height="8" fill="#FFCBD7" />
<rect x="232" y="280" width="8" height="8" fill="#FFCBD7" />
<rect x="240" y="280" width="8" height="8" fill="#FFCBD7" />
<rect x="248" y="280" width="8" height="8" fill="#FFCBD7" />
<rect x="256" y="280" width="8" height="8" fill="#FFCBD7" />
<rect x="264" y="280" width="8" height="8" fill="#FFCBD7" />
<rect x="272" y="280" width="8" height="8" fill="#FFCBD7" />
<rect x="280" y="280" width="8" height="8" fill="#FFCBD7" />
<rect x="288" y="280" width="8" height="8" fill="#FFCBD7" />
<rect x="296" y="280" width="8" height="8" fill="#FFCBD7" />
<rect x="304" y="280" width="8" height="8" fill="#FFCBD7" />
<rect x="312" y="280" width="8" height="8" fill="#FFCBD7" />
<rect x="320" y="280" width="8" height="8" fill="#FFCBD7" />
<rect x="328" y="280" width="8" height="8" fill="#EBAEBC" />
<rect x="336" y="280" width="8" height="8" fill="#EBAEBC" />
<rect x="344" y="280" width="8" height="8" fill="#EBAEBC" />
<rect x="352" y="280" width="8" height="8" fill="#EBAEBC" />
<rect x="160" y="288" width="8" height="8" fill="#EBAEBC" />
<rect x="168" y="288" width="8" height="8" fill="#EBAEBC" />
<rect x="176" y="288" width="8" height="8" fill="#EBAEBC" />
<rect x="184" y="288" width="8" height="8" fill="#EBAEBC" />
<rect x="192" y="288" width="8" height="8" fill="#FFCBD7" />
<rect x="200" y="288" width="8" height="8" fill="#FFCBD7" />
<rect x="208" y="288" width="8" height="8" fill="#FFCBD7" />
<rect x="216" y="288" width="8" height="8" fill="#FFCBD7" />
<rect x="224" y="288" width="8" height="8" fill="#FFCBD7" />
<rect x="232" y="288" width="8" height="8" fill="#FFCBD7" />
<rect x="240" y="288" width="8" height="8" fill="#FFCBD7" />
<rect x="248" y="288" width="8" height="8" fill="#FFCBD7" />
<rect x="256" y="288" width="8" height="8" fill="#FFCBD7" />
<rect x="264" y="288" width="8" height="8" fill="#FFCBD7" />
<rect x="272" y="288" width="8" height="8" fill="#FFCBD7" />
<rect x="280" y="288" width="8" height="8" fill="#FFCBD7" />
<rect x="288" y="288" width="8" height="8" fill="#FFCBD7" />
<rect x="296" y="288" width="8" height="8" fill="#FFCBD7" />
<rect x="304" y="288" width="8" height="8" fill="#FFCBD7" />
<rect x="312" y="288" width="8" height="8" fill="#FFCBD7" />
<rect x="320" y="288" width="8" height="8" fill="#EBAEBC" />
<rect x="328" y="288" width="8" height="8" fill="#EBAEBC" />
<rect x="336" y="288" width="8" height="8" fill="#EBAEBC" />
<rect x="344" y="288" width="8" height="8" fill="#EBAEBC" />
<rect x="168" y="296" width="8" height="8" fill="#EBAEBC" />
<rect x="176" y="296" width="8" height="8" fill="#EBAEBC" />
<rect x="184" y="296" width="8" height="8" fill="#EBAEBC" />
<rect x="192" y="296" width="8" height="8" fill="#EBAEBC" />
<rect x="200" y="296" width="8" height="8" fill="#FFCBD7" />
<rect x="208" y="296" width="8" height="8" fill="#FFCBD7" />
<rect x="216" y="296" width="8" height="8" fill="#FFCBD7" />
<rect x="224" y="296" width="8" height="8" fill="#FFCBD7" />
<rect x="232" y="296" width="8" height="8" fill="#FFCBD7" />
<rect x="240" y="296" width="8" height="8" fill="#FFCBD7" />
<rect x="248" y="296" width="8" height="8" fill="#FFCBD7" />
<rect x="256" y="296" width="8" height="8" fill="#FFCBD7" />
<rect x="264" y="296" width="8" height="8" fill="#FFCBD7" />
<rect x="272" y="296" width="8" height="8" fill="#FFCBD7" />
<rect x="280" y="296" width="8" height="8" fill="#FFCBD7" />
<rect x="288" y="296" width="8" height="8" fill="#FFCBD7" />
<rect x="296" y="296" width="8" height="8" fill="#FFCBD7" />
<rect x="304" y="296" width="8" height="8" fill="#FFCBD7" />
<rect x="312" y="296" width="8" height="8" fill="#EBAEBC" />
<rect x="320" y="296" width="8" height="8" fill="#EBAEBC" />
<rect x="328" y="296" width="8" height="8" fill="#EBAEBC" />
<rect x="336" y="296" width="8" height="8" fill="#EBAEBC" />
<rect x="176" y="304" width="8" height="8" fill="#EBAEBC" />
<rect x="184" y="304" width="8" height="8" fill="#EBAEBC" />
<rect x="192" y="304" width="8" height="8" fill="#EBAEBC" />
<rect x="200" y="304" width="8" height="8" fill="#EBAEBC" />
<rect x="208" y="304" width="8" height="8" fill="#FFCBD7" />
<rect x="216" y="304" width="8" height="8" fill="#FFCBD7" />
<rect x="224" y="304" width="8" height="8" fill="#FFCBD7" />
<rect x="232" y="304" width="8" height="8" fill="#FFCBD7" />
<rect x="240" y="304" width="8" height="8" fill="#FFCBD7" />
<rect x="248" y="304" width="8" height="8" fill="#FFCBD7" />
<rect x="256" y="304" width="8" height="8" fill="#FFCBD7" />
<rect x="264" y="304" width="8" height="8" fill="#FFCBD7" />
<rect x="272" y="304" width="8" height="8" fill="#FFCBD7" />
<rect x="280" y="304" width="8" height="8" fill="#FFCBD7" />
<rect x="288" y="304" width="8" height="8" fill="#FFCBD7" />
<rect x="296" y="304" width="8" height="8" fill="#FFCBD7" />
<rect x="304" y="304" width="8" height="8" fill="#EBAEBC" />
<rect x="312" y="304" width="8" height="8" fill="#EBAEBC" />
<rect x="320" y="304" width="8" height="8" fill="#EBAEBC" />
<rect x="328" y="304" width="8" height="8" fill="#EBAEBC" />
<rect x="184" y="312" width="8" height="8" fill="#EBAEBC" />
<rect x="192" y="312" width="8" height="8" fill="#EBAEBC" />
<rect x="200" y="312" width="8" height="8" fill="#EBAEBC" />
<rect x="208" y="312" width="8" height="8" fill="#EBAEBC" />
<rect x="216" y="312" width="8" height="8" fill="#FFCBD7" />
<rect x="224" y="312" width="8" height="8" fill="#FFCBD7" />
<rect x="232" y="312" width="8" height="8" fill="#FFCBD7" />
<rect x="240" y="312" width="8" height="8" fill="#FFCBD7" />
<rect x="248" y="312" width="8" height="8" fill="#FFCBD7" />
<rect x="256" y="312" width="8" height="8" fill="#FFCBD7" />
<rect x="264" y="312" width="8" height="8" fill="#FFCBD7" />
<rect x="272" y="312" width="8" height="8" fill="#FFCBD7" />
<rect x="280" y="312" width="8" height="8" fill="#FFCBD7" />
<rect x="288" y="312" width="8" height="8" fill="#FFCBD7" />
<rect x="296" y="312" width="8" height="8" fill="#EBAEBC" />
<rect x="304" y="312" width="8" height="8" fill="#EBAEBC" />
<rect x="312" y="312" width="8" height="8" fill="#EBAEBC" />
<rect x="320" y="312" width="8" height="8" fill="#EBAEBC" />
<rect x="192" y="320" width="8" height="8" fill="#EBAEBC" />
<rect x="200" y="320" width="8" height="8" fill="#EBAEBC" />
<rect x="208" y="320" width="8" height="8" fill="#EBAEBC" />
<rect x="216" y="320" width="8" height="8" fill="#EBAEBC" />
<rect x="224" y="320" width="8" height="8" fill="#FFCBD7" />
<rect x="232" y="320" width="8" height="8" fill="#FFCBD7" />
<rect x="240" y="320" width="8" height="8" fill="#FFCBD7" />
<rect x="248" y="320" width="8" height="8" fill="#FFCBD7" />
<rect x="256" y="320" width="8" height="8" fill="#FFCBD7" />
<rect x="264" y="320" width="8" height="8" fill="#FFCBD7" />
<rect x="272" y="320" width="8" height="8" fill="#FFCBD7" />
<rect x="280" y="320" width="8" height="8" fill="#FFCBD7" />
<rect x="288" y="320" width="8" height="8" fill="#EBAEBC" />
<rect x="296" y="320" width="8" height="8" fill="#EBAEBC" />
<rect x="304" y="320" width="8" height="8" fill="#EBAEBC" />
<rect x="312" y="320" width="8" height="8" fill="#EBAEBC" />
<rect x="200" y="328" width="8" height="8" fill="#EBAEBC" />
<rect x="208" y="328" width="8" height="8" fill="#EBAEBC" />
<rect x="216" y="328" width="8" height="8" fill="#EBAEBC" />
<rect x="224" y="328" width="8" height="8" fill="#EBAEBC" />
<rect x="232" y="328" width="8" height="8" fill="#FFCBD7" />
<rect x="240" y="328" width="8" height="8" fill="#FFCBD7" />
<rect x="248" y="328" width="8" height="8" fill="#FFCBD7" />
<rect x="256" y="328" width="8" height="8" fill="#FFCBD7" />
<rect x="264" y="328" width="8" height="8" fill="#FFCBD7" />
<rect x="272" y="328" width="8" height="8" fill="#FFCBD7" />
<rect x="280" y="328" width="8" height="8" fill="#EBAEBC" />
<rect x="288" y="328" width="8" height="8" fill="#EBAEBC" />
<rect x="296" y="328" width="8" height="8" fill="#EBAEBC" />
<rect x="304" y="328" width="8" height="8" fill="#EBAEBC" />
<rect x="208" y="336" width="8" height="8" fill="#EBAEBC" />
<rect x="216" y="336" width="8" height="8" fill="#EBAEBC" />
<rect x="224" y="336" width="8" height="8" fill="#EBAEBC" />
<rect x="232" y="336" width="8" height="8" fill="#EBAEBC" />
<rect x="240" y="336" width="8" height="8" fill="#FFCBD7" />
<rect x="248" y="336" width="8" height="8" fill="#FFCBD7" />
<rect x="256" y="336" width="8" height="8" fill="#FFCBD7" />
<rect x="264" y="336" width="8" height="8" fill="#FFCBD7" />
<rect x="272" y="336" width="8" height="8" fill="#EBAEBC" />
<rect x="280" y="336" width="8" height="8" fill="#EBAEBC" />
<rect x="288" y="336" width="8" height="8" fill="#EBAEBC" />
<rect x="296" y="336" width="8" height="8" fill="#EBAEBC" />
<rect x="216" y="344" width="8" height="8" fill="#EBAEBC" />
<rect x="224" y="344" width="8" height="8" fill="#EBAEBC" />
<rect x="232" y="344" width="8" height="8" fill="#EBAEBC" />
<rect x="240" y="344" width="8" height="8" fill="#EBAEBC" />
<rect x="248" y="344" width="8" height="8" fill="#FFCBD7" />
<rect x="256" y="344" width="8" height="8" fill="#FFCBD7" />
<rect x="264" y="344" width="8" height="8" fill="#EBAEBC" />
<rect x="272" y="344" width="8" height="8" fill="#EBAEBC" />
<rect x="280" y="344" width="8" height="8" fill="#EBAEBC" />
<rect x="288" y="344" width="8" height="8" fill="#EBAEBC" />
<rect x="224" y="352" width="8" height="8" fill="#EBAEBC" />
<rect x="232" y="352" width="8" height="8" fill="#EBAEBC" />
<rect x="240" y="352" width="8" height="8" fill="#EBAEBC" />
<rect x="248" y="352" width="8" height="8" fill="#EBAEBC" />
<rect x="256" y="352" width="8" height="8" fill="#EBAEBC" />
<rect x="264" y="352" width="8" height="8" fill="#EBAEBC" />
<rect x="272" y="352" width="8" height="8" fill="#EBAEBC" />
<rect x="280" y="352" width="8" height="8" fill="#EBAEBC" />
<rect x="232" y="360" width="8" height="8" fill="#EBAEBC" />
<rect x="240" y="360" width="8" height="8" fill="#EBAEBC" />
<rect x="248" y="360" width="8" height="8" fill="#EBAEBC" />
<rect x="256" y="360" width="8" height="8" fill="#EBAEBC" />
<rect x="264" y="360" width="8" height="8" fill="#EBAEBC" />
<rect x="272" y="360" width="8" height="8" fill="#EBAEBC" />
<rect x="240" y="368" width="8" height="8" fill="#EBAEBC" />
<rect x="248" y="368" width="8" height="8" fill="#EBAEBC" />
<rect x="256" y="368" width="8" height="8" fill="#EBAEBC" />
<rect x="264" y="368" width="8" height="8" fill="#EBAEBC" />
<rect x="248" y="376" width="8" height="8" fill="#EBAEBC" />
<rect x="256" y="376" width="8" height="8" fill="#EBAEBC" />
</svg>