<?xml version="1.0" encoding="UTF-8" ?>
<svg version="1.1" width="512" height="512" xmlns="http://www.w3.org/2000/svg" shape-rendering="crispEdges">
<rect x="128" y="112" width="8" height="8" fill="#C3DEEB" />
<rect x="136" y="120" width="8" height="8" fill="#C3DEEB" />
<rect x="144" y="120" width="8" height="8" fill="#C3DEEB" />
<rect x="120" y="128" width="8" height="8" fill="#C3DEEB" />
<rect x="152" y="128" width="8" height="8" fill="#C3DEEB" />
<rect x="184" y="128" width="8" height="8" fill="#FFCABB" />
<rect x="128" y="136" width="8" height="8" fill="#C3DEEB" />
<rect x="136" y="136" width="8" height="8" fill="#C3DEEB" />
<rect x="160" y="136" width="8" height="8" fill="#C3DEEB" />
<rect x="168" y="136" width="8" height="8" fill="#C3DEEB" />
<rect x="184" y="136" width="8" height="8" fill="#FFCABB" />
<rect x="112" y="144" width="8" height="8" fill="#C3DEEB" />
<rect x="144" y="144" width="8" height="8" fill="#C3DEEB" />
<rect x="176" y="144" width="8" height="8" fill="#FFCABB" />
<rect x="184" y="144" width="8" height="8" fill="#FFCABB" />
<rect x="120" y="152" width="8" height="8" fill="#C3DEEB" />
<rect x="128" y="152" width="8" height="8" fill="#C3DEEB" />
<rect x="152" y="152" width="8" height="8" fill="#C3DEEB" />
<rect x="160" y="152" width="8" height="8" fill="#C3DEEB" />
<rect x="168" y="152" width="8" height="8" fill="#FFCABB" />
<rect x="176" y="152" width="8" height="8" fill="#FFCABB" />
<rect x="184" y="152" width="8" height="8" fill="#FFCABB" />
<rect x="192" y="152" width="8" height="8" fill="#C3DEEB" />
<rect x="136" y="160" width="8" height="8" fill="#C3DEEB" />
<rect x="168" y="160" width="8" height="8" fill="#C3DEEB" />
<rect x="176" y="160" width="8" height="8" fill="#FFCABB" />
<rect x="200" y="160" width="8" height="8" fill="#C3DEEB" />
<rect x="208" y="160" width="8" height="8" fill="#C3DEEB" />
<rect x="144" y="168" width="8" height="8" fill="#C3DEEB" />
<rect x="152" y="168" width="8" height="8" fill="#C3DEEB" />
<rect x="184" y="168" width="8" height="8" fill="#C3DEEB" />
<rect x="216" y="168" width="8" height="8" fill="#C3DEEB" />
<rect x="160" y="176" width="8" height="8" fill="#C3DEEB" />
<rect x="168" y="176" width="8" height="8" fill="#C3DEEB" />
<rect x="192" y="176" width="8" height="8" fill="#C3DEEB" />
<rect x="200" y="176" width="8" height="8" fill="#C3DEEB" />
<rect x="224" y="176" width="8" height="8" fill="#C3DEEB" />
<rect x="232" y="176" width="8" height="8" fill="#C3DEEB" />
<rect x="176" y="184" width="8" height="8" fill="#C3DEEB" />
<rect x="208" y="184" width="8" height="8" fill="#C3DEEB" />
<rect x="240" y="184" width="8" height="8" fill="#C3DEEB" />
<rect x="184" y="192" width="8" height="8" fill="#C3DEEB" />
<rect x="192" y="192" width="8" height="8" fill="#C3DEEB" />
<rect x="216" y="192" width="8" height="8" fill="#C3DEEB" />
<rect x="224" y="192" width="8" height="8" fill="#C3DEEB" />
<rect x="248" y="192" width="8" height="8" fill="#C3DEEB" />
<rect x="200" y="200" width="8" height="8" fill="#C3DEEB" />
<rect x="232" y="200" width="8" height="8" fill="#C3DEEB" />
<rect x="256" y="200" width="8" height="8" fill="#C3DEEB" />
<rect x="208" y="208" width="8" height="8" fill="#C3DEEB" />
<rect x="216" y="208" width="8" height="8" fill="#C3DEEB" />
<rect x="240" y="208" width="8" height="8" fill="#C3DEEB" />
<rect x="264" y="208" width="8" height="8" fill="#C3DEEB" />
<rect x="224" y="216" width="8" height="8" fill="#C3DEEB" />
<rect x="248" y="216" width="8" height="8" fill="#C3DEEB" />
<rect x="272" y="216" width="8" height="8" fill="#C3DEEB" />
<rect x="232" y="224" width="8" height="8" fill="#C3DEEB" />
<rect x="256" y="224" width="8" height="8" fill="#C3DEEB" />
<rect x="280" y="224" width="8" height="8" fill="#C3DEEB" />
<rect x="240" y="232" width="8" height="8" fill="#C3DEEB" />
<rect x="264" y="232" width="8" height="8" fill="#C3DEEB" />
<rect x="288" y="232" width="8" height="8" fill="#C3DEEB" />
<rect x="248" y="240" width="8" height="8" fill="#C3DEEB" />
<rect x="272" y="240" width="8" height="8" fill="#C3DEEB" />
<rect x="296" y="240" width="8" height="8" fill="#C3DEEB" />
<rect x="256" y="248" width="8" height="8" fill="#C3DEEB" />
<rect x="280" y="248" width="8" height="8" fill="#C3DEEB" />
<rect x="304" y="248" width="8" height="8" fill="#C3DEEB" />
<rect x="264" y="256" width="8" height="8" fill="#C3DEEB" />
<rect x="288" y="256" width="8" height="8" fill="#C3DEEB" />
<rect x="296" y="256" width="8" height="8" fill="#FFCABB" />
<rect x="312" y="256" width="8" height="8" fill="#C3DEEB" />
<rect x="272" y="264" width="8" height="8" fill="#C3DEEB" />
<rect x="288" y="264" width="8" height="8" fill="#FFCABB" />
<rect x="296" y="264" width="8" height="8" fill="#FFCABB" />
<rect x="304" y="264" width="8" height="8" fill="#FFCABB" />
<rect x="320" y="264" width="8" height="8" fill="#C3DEEB" />
<rect x="280" y="272" width="8" height="8" fill="#C3DEEB" />
<rect x="288" y="272" width="8" height="8" fill="#FFCABB" />
<rect x="296" y="272" width="8" height="8" fill="#FFCABB" />
<rect x="304" y="272" width="8" height="8" fill="#C3DEEB" />
<rect x="320" y="272" width="8" height="8" fill="#C3DEEB" />
<rect x="288" y="280" width="8" height="8" fill="#FFCABB" />
<rect x="312" y="280" width="8" height="8" fill="#C3DEEB" />
<rect x="328" y="280" width="8" height="8" fill="#C3DEEB" />
<rect x="288" y="288" width="8" height="8" fill="#FFCABB" />
<rect x="296" y="288" width="8" height="8" fill="#C3DEEB" />
<rect x="312" y="288" width="8" height="8" fill="#C3DEEB" />
<rect x="336" y="288" width="8" height="8" fill="#C3DEEB" />
<rect x="304" y="296" width="8" height="8" fill="#C3DEEB" />
<rect x="320" y="296" width="8" height="8" fill="#C3DEEB" />
<rect x="344" y="296" width="8" height="8" fill="#C3DEEB" />
<rect x="304" y="304" width="8" height="8" fill="#C3DEEB" />
<rect x="328" y="304" width="8" height="8" fill="#C3DEEB" />
<rect x="344" y="304" width="8" height="8" fill="#C3DEEB" />
<rect x="312" y="312" width="8" height="8" fill="#C3DEEB" />
<rect x="336" y="312" width="8" height="8" fill="#C3DEEB" />
<rect x="352" y="312" width="8" height="8" fill="#C3DEEB" />
<rect x="320" y="320" width="8" height="8" fill="#C3DEEB" />
<rect x="336" y="320" width="8" height="8" fill="#C3DEEB" />
<rect x="352" y="320" width="8" height="8" fill="#C3DEEB" />
<rect x="328" y="328" width="8" height="8" fill="#C3DEEB" />
<rect x="344" y="328" width="8" height="8" fill="#C3DEEB" />
<rect x="360" y="328" width="8" height="8" fill="#C3DEEB" />
<rect x="328" y="336" width="8" height="8" fill="#C3DEEB" />
<rect x="344" y="336" width="8" height="8" fill="#C3DEEB" />
<rect x="360" y="336" width="8" height="8" fill="#C3DEEB" />
<rect x="336" y="344" width="8" height="8" fill="#C3DEEB" />
<rect x="352" y="344" width="8" height="8" fill="#C3DEEB" />
<rect x="368" y="344" width="8" height="8" fill="#C3DEEB" />
<rect x="336" y="352" width="8" height="8" fill="#C3DEEB" />
<rect x="352" y="352" width="8" height="8" fill="#C3DEEB" />
<rect x="376" y="352" width="8" height="8" fill="#C3DEEB" />
<rect x="344" y="360" width="8" height="8" fill="#C3DEEB" />
<rect x="360" y="360" width="8" height="8" fill="#C3DEEB" />
<rect x="376" y="360" width="8" height="8" fill="#C3DEEB" />
<rect x="344" y="368" width="8" height="8" fill="#C3DEEB" />
<rect x="368" y="368" width="8" height="8" fill="#C3DEEB" />
<rect x="384" y="368" width="8" height="8" fill="#FFCABB" />
<rect x="352" y="376" width="8" height="8" fill="#C3DEEB" />
<rect x="368" y="376" width="8" height="8" fill="#C3DEEB" />
<rect x="384" y="376" width="8" height="8" fill="#FFCABB" />
<rect x="360" y="384" width="8" height="8" fill="#C3DEEB" />
<rect x="376" y="384" width="8" height="8" fill="#FFCABB" />
<rect x="384" y="384" width="8" height="8" fill="#FFCABB" />
<rect x="392" y="384" width="8" height="8" fill="#C3DEEB" />
<rect x="360" y="392" width="8" height="8" fill="#C3DEEB" />
<rect x="368" y="392" width="8" height="8" fill="#FFCABB" />
<rect x="376" y="392" width="8" height="8" fill="#FFCABB" />
<rect x="384" y="392" width="8" height="8" fill="#FFCABB" />
<rect x="392" y="392" width="8" height="8" fill="#C3DEEB" />
<rect x="368" y="400" width="8" height="8" fill="#C3DEEB" />
<rect x="376" y="400" width="8" height="8" fill="#FFCABB" />
<rect x="384" y="400" width="8" height="8" fill="#C3DEEB" />
<rect x="400" y="400" width="8" height="8" fill="#C3DEEB" />
<rect x="368" y="408" width="8" height="8" fill="#C3DEEB" />
<rect x="384" y="408" width="8" height="8" fill="#C3DEEB" />
<rect x="400" y="408" width="8" height="8" fill="#C3DEEB" />
<rect x="376" y="416" width="8" height="8" fill="#C3DEEB" />
<rect x="392" y="416" width="8" height="8" fill="#C3DEEB" />
<rect x="408" y="416" width="8" height="8" fill="#C3DEEB" />
<rect x="376" y="424" width="8" height="8" fill="#C3DEEB" />
<rect x="392" y="424" width="8" height="8" fill="#C3DEEB" />
<rect x="384" y="432" width="8" height="8" fill="#C3DEEB" />
<rect x="400" y="432" width="8" height="8" fill="#C3DEEB" />
<rect x="384" y="440" width="8" height="8" fill="#C3DEEB" />
<rect x="392" y="448" width="8" height="8" fill="#C3DEEB" />
</svg>