<?xml version="1.0" encoding="UTF-8" ?>
<svg version="1.1" width="64" height="64" xmlns="http://www.w3.org/2000/svg" shape-rendering="crispEdges">
<rect x="29" y="9" width="1" height="1" fill="#C3DEEB" />
<rect x="30" y="9" width="1" height="1" fill="#C3DEEB" />
<rect x="31" y="9" width="1" height="1" fill="#87AFBB" />
<rect x="32" y="9" width="1" height="1" fill="#87AFBB" />
<rect x="33" y="9" width="1" height="1" fill="#87AFBB" />
<rect x="34" y="9" width="1" height="1" fill="#C3DEEB" />
<rect x="27" y="10" width="1" height="1" fill="#C3DEEB" />
<rect x="28" y="10" width="1" height="1" fill="#C3DEEB" />
<rect x="29" y="10" width="1" height="1" fill="#87AFBB" />
<rect x="30" y="10" width="1" height="1" fill="#87AFBB" />
<rect x="31" y="10" width="1" height="1" fill="#87AFBB" />
<rect x="32" y="10" width="1" height="1" fill="#87AFBB" />
<rect x="33" y="10" width="1" height="1" fill="#87AFBB" />
<rect x="34" y="10" width="1" height="1" fill="#87AFBB" />
<rect x="35" y="10" width="1" height="1" fill="#87AFBB" />
<rect x="36" y="10" width="1" height="1" fill="#87AFBB" />
<rect x="27" y="11" width="1" height="1" fill="#C3DEEB" />
<rect x="28" y="11" width="1" height="1" fill="#87AFBB" />
<rect x="29" y="11" width="1" height="1" fill="#87AFBB" />
<rect x="30" y="11" width="1" height="1" fill="#87AFBB" />
<rect x="31" y="11" width="1" height="1" fill="#87AFBB" />
<rect x="32" y="11" width="1" height="1" fill="#87AFBB" />
<rect x="33" y="11" width="1" height="1" fill="#87AFBB" />
<rect x="34" y="11" width="1" height="1" fill="#87AFBB" />
<rect x="35" y="11" width="1" height="1" fill="#87AFBB" />
<rect x="36" y="11" width="1" height="1" fill="#87AFBB" />
<rect x="26" y="12" width="1" height="1" fill="#C3DEEB" />
<rect x="27" y="12" width="1" height="1" fill="#87AFBB" />
<rect x="28" y="12" width="1" height="1" fill="#87AFBB" />
<rect x="29" y="12" width="1" height="1" fill="#87AFBB" />
<rect x="30" y="12" width="1" height="1" fill="#87AFBB" />
<rect x="31" y="12" width="1" height="1" fill="#87AFBB" />
<rect x="32" y="12" width="1" height="1" fill="#87AFBB" />
<rect x="33" y="12" width="1" height="1" fill="#87AFBB" />
<rect x="34" y="12" width="1" height="1" fill="#87AFBB" />
<rect x="35" y="12" width="1" height="1" fill="#87AFBB" />
<rect x="36" y="12" width="1" height="1" fill="#87AFBB" />
<rect x="37" y="12" width="1" height="1" fill="#87AFBB" />
<rect x="26" y="13" width="1" height="1" fill="#C3DEEB" />
<rect x="27" y="13" width="1" height="1" fill="#87AFBB" />
<rect x="28" y="13" width="1" height="1" fill="#87AFBB" />
<rect x="29" y="13" width="1" height="1" fill="#87AFBB" />
<rect x="30" y="13" width="1" height="1" fill="#87AFBB" />
<rect x="31" y="13" width="1" height="1" fill="#87AFBB" />
<rect x="32" y="13" width="1" height="1" fill="#87AFBB" />
<rect x="33" y="13" width="1" height="1" fill="#87AFBB" />
<rect x="34" y="13" width="1" height="1" fill="#87AFBB" />
<rect x="35" y="13" width="1" height="1" fill="#87AFBB" />
<rect x="36" y="13" width="1" height="1" fill="#87AFBB" />
<rect x="37" y="13" width="1" height="1" fill="#87AFBB" />
<rect x="26" y="14" width="1" height="1" fill="#87AFBB" />
<rect x="27" y="14" width="1" height="1" fill="#87AFBB" />
<rect x="28" y="14" width="1" height="1" fill="#87AFBB" />
<rect x="29" y="14" width="1" height="1" fill="#FFDECC" />
<rect x="30" y="14" width="1" height="1" fill="#FFDECC" />
<rect x="31" y="14" width="1" height="1" fill="#FFDECC" />
<rect x="32" y="14" width="1" height="1" fill="#FFDECC" />
<rect x="33" y="14" width="1" height="1" fill="#FFDECC" />
<rect x="34" y="14" width="1" height="1" fill="#FFDECC" />
<rect x="35" y="14" width="1" height="1" fill="#87AFBB" />
<rect x="36" y="14" width="1" height="1" fill="#87AFBB" />
<rect x="37" y="14" width="1" height="1" fill="#87AFBB" />
<rect x="25" y="15" width="1" height="1" fill="#C3DEEB" />
<rect x="26" y="15" width="1" height="1" fill="#87AFBB" />
<rect x="27" y="15" width="1" height="1" fill="#87AFBB" />
<rect x="28" y="15" width="1" height="1" fill="#FFDECC" />
<rect x="29" y="15" width="1" height="1" fill="#FFDECC" />
<rect x="30" y="15" width="1" height="1" fill="#FFDECC" />
<rect x="31" y="15" width="1" height="1" fill="#FFDECC" />
<rect x="32" y="15" width="1" height="1" fill="#FFDECC" />
<rect x="33" y="15" width="1" height="1" fill="#FFDECC" />
<rect x="34" y="15" width="1" height="1" fill="#FFDECC" />
<rect x="35" y="15" width="1" height="1" fill="#FFDECC" />
<rect x="36" y="15" width="1" height="1" fill="#87AFBB" />
<rect x="37" y="15" width="1" height="1" fill="#87AFBB" />
<rect x="38" y="15" width="1" height="1" fill="#87AFBB" />
<rect x="25" y="16" width="1" height="1" fill="#87AFBB" />
<rect x="26" y="16" width="1" height="1" fill="#87AFBB" />
<rect x="27" y="16" width="1" height="1" fill="#87AFBB" />
<rect x="28" y="16" width="1" height="1" fill="#FFDECC" />
<rect x="29" y="16" width="1" height="1" fill="#87AFBB" />
<rect x="30" y="16" width="1" height="1" fill="#87AFBB" />
<rect x="31" y="16" width="1" height="1" fill="#FFDECC" />
<rect x="32" y="16" width="1" height="1" fill="#FFDECC" />
<rect x="33" y="16" width="1" height="1" fill="#87AFBB" />
<rect x="34" y="16" width="1" height="1" fill="#87AFBB" />
<rect x="35" y="16" width="1" height="1" fill="#FFDECC" />
<rect x="36" y="16" width="1" height="1" fill="#87AFBB" />
<rect x="37" y="16" width="1" height="1" fill="#87AFBB" />
<rect x="38" y="16" width="1" height="1" fill="#87AFBB" />
<rect x="25" y="17" width="1" height="1" fill="#87AFBB" />
<rect x="26" y="17" width="1" height="1" fill="#87AFBB" />
<rect x="27" y="17" width="1" height="1" fill="#87AFBB" />
<rect x="28" y="17" width="1" height="1" fill="#FFDECC" />
<rect x="29" y="17" width="1" height="1" fill="#FFDECC" />
<rect x="30" y="17" width="1" height="1" fill="#FFDECC" />
<rect x="31" y="17" width="1" height="1" fill="#FFDECC" />
<rect x="32" y="17" width="1" height="1" fill="#FFDECC" />
<rect x="33" y="17" width="1" height="1" fill="#FFDECC" />
<rect x="34" y="17" width="1" height="1" fill="#FFDECC" />
<rect x="35" y="17" width="1" height="1" fill="#FFDECC" />
<rect x="36" y="17" width="1" height="1" fill="#87AFBB" />
<rect x="37" y="17" width="1" height="1" fill="#87AFBB" />
<rect x="38" y="17" width="1" height="1" fill="#87AFBB" />
<rect x="25" y="18" width="1" height="1" fill="#87AFBB" />
<rect x="26" y="18" width="1" height="1" fill="#87AFBB" />
<rect x="27" y="18" width="1" height="1" fill="#87AFBB" />
<rect x="28" y="18" width="1" height="1" fill="#FFDECC" />
<rect x="29" y="18" width="1" height="1" fill="#FFDECC" />
<rect x="30" y="18" width="1" height="1" fill="#FFDECC" />
<rect x="31" y="18" width="1" height="1" fill="#FFDECC" />
<rect x="32" y="18" width="1" height="1" fill="#FFDECC" />
<rect x="33" y="18" width="1" height="1" fill="#FFDECC" />
<rect x="34" y="18" width="1" height="1" fill="#FFDECC" />
<rect x="35" y="18" width="1" height="1" fill="#FFDECC" />
<rect x="36" y="18" width="1" height="1" fill="#87AFBB" />
<rect x="37" y="18" width="1" height="1" fill="#87AFBB" />
<rect x="38" y="18" width="1" height="1" fill="#87AFBB" />
<rect x="25" y="19" width="1" height="1" fill="#87AFBB" />
<rect x="26" y="19" width="1" height="1" fill="#87AFBB" />
<rect x="27" y="19" width="1" height="1" fill="#87AFBB" />
<rect x="28" y="19" width="1" height="1" fill="#87AFBB" />
<rect x="29" y="19" width="1" height="1" fill="#FFDECC" />
<rect x="30" y="19" width="1" height="1" fill="#FFDECC" />
<rect x="31" y="19" width="1" height="1" fill="#FFDECC" />
<rect x="32" y="19" width="1" height="1" fill="#FFDECC" />
<rect x="33" y="19" width="1" height="1" fill="#FFDECC" />
<rect x="34" y="19" width="1" height="1" fill="#FFDECC" />
<rect x="35" y="19" width="1" height="1" fill="#87AFBB" />
<rect x="36" y="19" width="1" height="1" fill="#87AFBB" />
<rect x="37" y="19" width="1" height="1" fill="#87AFBB" />
<rect x="38" y="19" width="1" height="1" fill="#87AFBB" />
<rect x="25" y="20" width="1" height="1" fill="#87AFBB" />
<rect x="26" y="20" width="1" height="1" fill="#87AFBB" />
<rect x="27" y="20" width="1" height="1" fill="#87AFBB" />
<rect x="28" y="20" width="1" height="1" fill="#87AFBB" />
<rect x="29" y="20" width="1" height="1" fill="#87AFBB" />
<rect x="30" y="20" width="1" height="1" fill="#FFDECC" />
<rect x="31" y="20" width="1" height="1" fill="#FFDECC" />
<rect x="32" y="20" width="1" height="1" fill="#FFDECC" />
<rect x="33" y="20" width="1" height="1" fill="#FFDECC" />
<rect x="34" y="20" width="1" height="1" fill="#87AFBB" />
<rect x="35" y="20" width="1" height="1" fill="#87AFBB" />
<rect x="36" y="20" width="1" height="1" fill="#87AFBB" />
<rect x="37" y="20" width="1" height="1" fill="#87AFBB" />
<rect x="38" y="20" width="1" height="1" fill="#87AFBB" />
<rect x="30" y="21" width="1" height="1" fill="#FFCBD7" />
<rect x="31" y="21" width="1" height="1" fill="#FFCBD7" />
<rect x="32" y="21" width="1" height="1" fill="#FFCBD7" />
<rect x="33" y="21" width="1" height="1" fill="#FFCBD7" />
<rect x="28" y="22" width="1" height="1" fill="#FFCBD7" />
<rect x="29" y="22" width="1" height="1" fill="#FFCBD7" />
<rect x="30" y="22" width="1" height="1" fill="#FFCBD7" />
<rect x="31" y="22" width="1" height="1" fill="#FFCBD7" />
<rect x="32" y="22" width="1" height="1" fill="#FFCBD7" />
<rect x="33" y="22" width="1" height="1" fill="#FFCBD7" />
<rect x="34" y="22" width="1" height="1" fill="#FFCBD7" />
<rect x="35" y="22" width="1" height="1" fill="#FFCBD7" />
<rect x="26" y="23" width="1" height="1" fill="#FFCBD7" />
<rect x="27" y="23" width="1" height="1" fill="#FFCBD7" />
<rect x="28" y="23" width="1" height="1" fill="#FFCBD7" />
<rect x="29" y="23" width="1" height="1" fill="#FFCBD7" />
<rect x="30" y="23" width="1" height="1" fill="#FFCBD7" />
<rect x="31" y="23" width="1" height="1" fill="#FFCBD7" />
<rect x="32" y="23" width="1" height="1" fill="#FFCBD7" />
<rect x="33" y="23" width="1" height="1" fill="#FFCBD7" />
<rect x="34" y="23" width="1" height="1" fill="#FFCBD7" />
<rect x="35" y="23" width="1" height="1" fill="#FFCBD7" />
<rect x="36" y="23" width="1" height="1" fill="#FFCBD7" />
<rect x="37" y="23" width="1" height="1" fill="#FFCBD7" />
<rect x="25" y="24" width="1" height="1" fill="#FFCBD7" />
<rect x="26" y="24" width="1" height="1" fill="#FFCBD7" />
<rect x="27" y="24" width="1" height="1" fill="#FFCBD7" />
<rect x="28" y="24" width="1" height="1" fill="#FFCBD7" />
<rect x="29" y="24" width="1" height="1" fill="#FFCBD7" />
<rect x="30" y="24" width="1" height="1" fill="#FFCBD7" />
<rect x="31" y="24" width="1" height="1" fill="#FFCBD7" />
<rect x="32" y="24" width="1" height="1" fill="#FFCBD7" />
<rect x="33" y="24" width="1" height="1" fill="#FFCBD7" />
<rect x="34" y="24" width="1" height="1" fill="#FFCBD7" />
<rect x="35" y="24" width="1" height="1" fill="#FFCBD7" />
<rect x="36" y="24" width="1" height="1" fill="#FFCBD7" />
<rect x="37" y="24" width="1" height="1" fill="#FFCBD7" />
<rect x="38" y="24" width="1" height="1" fill="#FFCBD7" />
<rect x="24" y="25" width="1" height="1" fill="#FFCBD7" />
<rect x="25" y="25" width="1" height="1" fill="#FFCBD7" />
<rect x="26" y="25" width="1" height="1" fill="#FFCBD7" />
<rect x="27" y="25" width="1" height="1" fill="#FFCBD7" />
<rect x="28" y="25" width="1" height="1" fill="#FFCBD7" />
<rect x="29" y="25" width="1" height="1" fill="#FFCBD7" />
<rect x="30" y="25" width="1" height="1" fill="#FFCBD7" />
<rect x="31" y="25" width="1" height="1" fill="#FFCBD7" />
<rect x="32" y="25" width="1" height="1" fill="#FFCBD7" />
<rect x="33" y="25" width="1" height="1" fill="#FFCBD7" />
<rect x="34" y="25" width="1" height="1" fill="#FFCBD7" />
<rect x="35" y="25" width="1" height="1" fill="#FFCBD7" />
<rect x="36" y="25" width="1" height="1" fill="#FFCBD7" />
<rect x="37" y="25" width="1" height="1" fill="#FFCBD7" />
<rect x="38" y="25" width="1" height="1" fill="#FFCBD7" />
<rect x="39" y="25" width="1" height="1" fill="#FFCBD7" />
<rect x="24" y="26" width="1" height="1" fill="#FFCBD7" />
<rect x="25" y="26" width="1" height="1" fill="#FFCBD7" />
<rect x="26" y="26" width="1" height="1" fill="#FFCBD7" />
<rect x="27" y="26" width="1" height="1" fill="#FFCBD7" />
<rect x="28" y="26" width="1" height="1" fill="#FFCBD7" />
<rect x="29" y="26" width="1" height="1" fill="#FFCBD7" />
<rect x="30" y="26" width="1" height="1" fill="#FFCBD7" />
<rect x="31" y="26" width="1" height="1" fill="#FFCBD7" />
<rect x="32" y="26" width="1" height="1" fill="#FFCBD7" />
<rect x="33" y="26" width="1" height="1" fill="#FFCBD7" />
<rect x="34" y="26" width="1" height="1" fill="#FFE5BA" />
<rect x="35" y="26" width="1" height="1" fill="#C3DEEB" />
<rect x="36" y="26" width="1" height="1" fill="#FFCBD7" />
<rect x="37" y="26" width="1" height="1" fill="#FFCBD7" />
<rect x="38" y="26" width="1" height="1" fill="#FFCBD7" />
<rect x="39" y="26" width="1" height="1" fill="#FFCBD7" />
<rect x="23" y="27" width="1" height="1" fill="#FFCBD7" />
<rect x="24" y="27" width="1" height="1" fill="#FFCBD7" />
<rect x="25" y="27" width="1" height="1" fill="#FFCBD7" />
<rect x="26" y="27" width="1" height="1" fill="#FFCBD7" />
<rect x="27" y="27" width="1" height="1" fill="#FFCBD7" />
<rect x="28" y="27" width="1" height="1" fill="#FFCBD7" />
<rect x="29" y="27" width="1" height="1" fill="#FFCBD7" />
<rect x="30" y="27" width="1" height="1" fill="#FFCBD7" />
<rect x="31" y="27" width="1" height="1" fill="#FFCBD7" />
<rect x="32" y="27" width="1" height="1" fill="#FFCBD7" />
<rect x="33" y="27" width="1" height="1" fill="#FFCBD7" />
<rect x="34" y="27" width="1" height="1" fill="#C3DEEB" />
<rect x="35" y="27" width="1" height="1" fill="#FFE5BA" />
<rect x="36" y="27" width="1" height="1" fill="#FFCBD7" />
<rect x="37" y="27" width="1" height="1" fill="#FFCBD7" />
<rect x="38" y="27" width="1" height="1" fill="#FFCBD7" />
<rect x="39" y="27" width="1" height="1" fill="#FFCBD7" />
<rect x="40" y="27" width="1" height="1" fill="#FFCBD7" />
<rect x="23" y="28" width="1" height="1" fill="#FFCBD7" />
<rect x="24" y="28" width="1" height="1" fill="#FFCBD7" />
<rect x="25" y="28" width="1" height="1" fill="#FFCBD7" />
<rect x="26" y="28" width="1" height="1" fill="#FFCBD7" />
<rect x="27" y="28" width="1" height="1" fill="#FFCBD7" />
<rect x="28" y="28" width="1" height="1" fill="#FFCBD7" />
<rect x="29" y="28" width="1" height="1" fill="#FFCBD7" />
<rect x="30" y="28" width="1" height="1" fill="#FFCBD7" />
<rect x="31" y="28" width="1" height="1" fill="#FFCBD7" />
<rect x="32" y="28" width="1" height="1" fill="#FFCBD7" />
<rect x="33" y="28" width="1" height="1" fill="#FFCBD7" />
<rect x="34" y="28" width="1" height="1" fill="#FFCBD7" />
<rect x="35" y="28" width="1" height="1" fill="#FFCBD7" />
<rect x="36" y="28" width="1" height="1" fill="#FFCBD7" />
<rect x="37" y="28" width="1" height="1" fill="#FFCBD7" />
<rect x="38" y="28" width="1" height="1" fill="#FFCBD7" />
<rect x="39" y="28" width="1" height="1" fill="#FFCBD7" />
<rect x="40" y="28" width="1" height="1" fill="#FFCBD7" />
<rect x="23" y="29" width="1" height="1" fill="#FFCBD7" />
<rect x="24" y="29" width="1" height="1" fill="#FFCBD7" />
<rect x="25" y="29" width="1" height="1" fill="#FFCBD7" />
<rect x="26" y="29" width="1" height="1" fill="#EBAEBC" />
<rect x="27" y="29" width="1" height="1" fill="#FFCBD7" />
<rect x="28" y="29" width="1" height="1" fill="#FFCBD7" />
<rect x="29" y="29" width="1" height="1" fill="#FFCBD7" />
<rect x="30" y="29" width="1" height="1" fill="#FFCBD7" />
<rect x="31" y="29" width="1" height="1" fill="#FFCBD7" />
<rect x="32" y="29" width="1" height="1" fill="#FFCBD7" />
<rect x="33" y="29" width="1" height="1" fill="#FFCBD7" />
<rect x="34" y="29" width="1" height="1" fill="#FFCBD7" />
<rect x="35" y="29" width="1" height="1" fill="#FFCBD7" />
<rect x="36" y="29" width="1" height="1" fill="#FFCBD7" />
<rect x="37" y="29" width="1" height="1" fill="#EBAEBC" />
<rect x="38" y="29" width="1" height="1" fill="#FFCBD7" />
<rect x="39" y="29" width="1" height="1" fill="#FFCBD7" />
<rect x="40" y="29" width="1" height="1" fill="#FFCBD7" />
<rect x="23" y="30" width="1" height="1" fill="#FFCBD7" />
<rect x="24" y="30" width="1" height="1" fill="#FFCBD7" />
<rect x="25" y="30" width="1" height="1" fill="#FFCBD7" />
<rect x="26" y="30" width="1" height="1" fill="#EBAEBC" />
<rect x="27" y="30" width="1" height="1" fill="#FFCBD7" />
<rect x="28" y="30" width="1" height="1" fill="#FFCBD7" />
<rect x="29" y="30" width="1" height="1" fill="#FFCBD7" />
<rect x="30" y="30" width="1" height="1" fill="#FFCBD7" />
<rect x="31" y="30" width="1" height="1" fill="#FFCBD7" />
<rect x="32" y="30" width="1" height="1" fill="#FFCBD7" />
<rect x="33" y="30" width="1" height="1" fill="#FFCBD7" />
<rect x="34" y="30" width="1" height="1" fill="#FFCBD7" />
<rect x="35" y="30" width="1" height="1" fill="#FFCBD7" />
<rect x="36" y="30" width="1" height="1" fill="#FFCBD7" />
<rect x="37" y="30" width="1" height="1" fill="#EBAEBC" />
<rect x="38" y="30" width="1" height="1" fill="#FFCBD7" />
<rect x="39" y="30" width="1" height="1" fill="#FFCBD7" />
<rect x="40" y="30" width="1" height="1" fill="#FFCBD7" />
<rect x="23" y="31" width="1" height="1" fill="#FFCBD7" />
<rect x="24" y="31" width="1" height="1" fill="#FFCBD7" />
<rect x="25" y="31" width="1" height="1" fill="#FFCBD7" />
<rect x="26" y="31" width="1" height="1" fill="#EBAEBC" />
<rect x="27" y="31" width="1" height="1" fill="#FFCBD7" />
<rect x="28" y="31" width="1" height="1" fill="#FFCBD7" />
<rect x="29" y="31" width="1" height="1" fill="#FFCBD7" />
<rect x="30" y="31" width="1" height="1" fill="#FFCBD7" />
<rect x="31" y="31" width="1" height="1" fill="#FFCBD7" />
<rect x="32" y="31" width="1" height="1" fill="#FFCBD7" />
<rect x="33" y="31" width="1" height="1" fill="#FFCBD7" />
<rect x="34" y="31" width="1" height="1" fill="#FFCBD7" />
<rect x="35" y="31" width="1" height="1" fill="#FFCBD7" />
<rect x="36" y="31" width="1" height="1" fill="#FFCBD7" />
<rect x="37" y="31" width="1" height="1" fill="#EBAEBC" />
<rect x="38" y="31" width="1" height="1" fill="#FFCBD7" />
<rect x="39" y="31" width="1" height="1" fill="#FFCBD7" />
<rect x="40" y="31" width="1" height="1" fill="#FFCBD7" />
<rect x="23" y="32" width="1" height="1" fill="#FFCBD7" />
<rect x="24" y="32" width="1" height="1" fill="#FFCBD7" />
<rect x="25" y="32" width="1" height="1" fill="#FFCBD7" />
<rect x="26" y="32" width="1" height="1" fill="#FFCBD7" />
<rect x="27" y="32" width="1" height="1" fill="#FFCBD7" />
<rect x="28" y="32" width="1" height="1" fill="#FFCBD7" />
<rect x="29" y="32" width="1" height="1" fill="#FFCBD7" />
<rect x="30" y="32" width="1" height="1" fill="#FFCBD7" />
<rect x="31" y="32" width="1" height="1" fill="#FFCBD7" />
<rect x="32" y="32" width="1" height="1" fill="#FFCBD7" />
<rect x="33" y="32" width="1" height="1" fill="#FFCBD7" />
<rect x="34" y="32" width="1" height="1" fill="#FFCBD7" />
<rect x="35" y="32" width="1" height="1" fill="#FFCBD7" />
<rect x="36" y="32" width="1" height="1" fill="#FFCBD7" />
<rect x="37" y="32" width="1" height="1" fill="#FFCBD7" />
<rect x="38" y="32" width="1" height="1" fill="#FFCBD7" />
<rect x="39" y="32" width="1" height="1" fill="#FFCBD7" />
<rect x="40" y="32" width="1" height="1" fill="#FFCBD7" />
<rect x="23" y="33" width="1" height="1" fill="#FFCBD7" />
<rect x="24" y="33" width="1" height="1" fill="#FFCBD7" />
<rect x="25" y="33" width="1" height="1" fill="#FFCBD7" />
<rect x="26" y="33" width="1" height="1" fill="#FFCBD7" />
<rect x="27" y="33" width="1" height="1" fill="#FFCBD7" />
<rect x="28" y="33" width="1" height="1" fill="#FFCBD7" />
<rect x="29" y="33" width="1" height="1" fill="#FFCBD7" />
<rect x="30" y="33" width="1" height="1" fill="#FFCBD7" />
<rect x="31" y="33" width="1" height="1" fill="#FFCBD7" />
<rect x="32" y="33" width="1" height="1" fill="#FFCBD7" />
<rect x="33" y="33" width="1" height="1" fill="#FFCBD7" />
<rect x="34" y="33" width="1" height="1" fill="#FFCBD7" />
<rect x="35" y="33" width="1" height="1" fill="#FFCBD7" />
<rect x="36" y="33" width="1" height="1" fill="#FFCBD7" />
<rect x="37" y="33" width="1" height="1" fill="#FFCBD7" />
<rect x="38" y="33" width="1" height="1" fill="#FFCBD7" />
<rect x="39" y="33" width="1" height="1" fill="#FFCBD7" />
<rect x="40" y="33" width="1" height="1" fill="#FFCBD7" />
<rect x="23" y="34" width="1" height="1" fill="#FFCBD7" />
<rect x="24" y="34" width="1" height="1" fill="#FFCBD7" />
<rect x="25" y="34" width="1" height="1" fill="#FFCBD7" />
<rect x="26" y="34" width="1" height="1" fill="#FFCBD7" />
<rect x="27" y="34" width="1" height="1" fill="#FFCBD7" />
<rect x="28" y="34" width="1" height="1" fill="#FFCBD7" />
<rect x="29" y="34" width="1" height="1" fill="#FFCBD7" />
<rect x="30" y="34" width="1" height="1" fill="#FFCBD7" />
<rect x="31" y="34" width="1" height="1" fill="#FFCBD7" />
<rect x="32" y="34" width="1" height="1" fill="#FFCBD7" />
<rect x="33" y="34" width="1" height="1" fill="#FFCBD7" />
<rect x="34" y="34" width="1" height="1" fill="#FFCBD7" />
<rect x="35" y="34" width="1" height="1" fill="#FFCBD7" />
<rect x="36" y="34" width="1" height="1" fill="#FFCBD7" />
<rect x="37" y="34" width="1" height="1" fill="#FFCBD7" />
<rect x="38" y="34" width="1" height="1" fill="#FFCBD7" />
<rect x="39" y="34" width="1" height="1" fill="#FFCBD7" />
<rect x="40" y="34" width="1" height="1" fill="#FFCBD7" />
<rect x="23" y="35" width="1" height="1" fill="#FFCBD7" />
<rect x="24" y="35" width="1" height="1" fill="#FFCBD7" />
<rect x="25" y="35" width="1" height="1" fill="#FFCBD7" />
<rect x="26" y="35" width="1" height="1" fill="#FFCBD7" />
<rect x="27" y="35" width="1" height="1" fill="#FFCBD7" />
<rect x="28" y="35" width="1" height="1" fill="#FFCBD7" />
<rect x="29" y="35" width="1" height="1" fill="#FFCBD7" />
<rect x="30" y="35" width="1" height="1" fill="#FFCBD7" />
<rect x="31" y="35" width="1" height="1" fill="#FFCBD7" />
<rect x="32" y="35" width="1" height="1" fill="#FFCBD7" />
<rect x="33" y="35" width="1" height="1" fill="#FFCBD7" />
<rect x="34" y="35" width="1" height="1" fill="#FFCBD7" />
<rect x="35" y="35" width="1" height="1" fill="#FFCBD7" />
<rect x="36" y="35" width="1" height="1" fill="#FFCBD7" />
<rect x="37" y="35" width="1" height="1" fill="#FFCBD7" />
<rect x="38" y="35" width="1" height="1" fill="#FFCBD7" />
<rect x="39" y="35" width="1" height="1" fill="#FFCBD7" />
<rect x="40" y="35" width="1" height="1" fill="#FFCBD7" />
<rect x="23" y="36" width="1" height="1" fill="#FFCBD7" />
<rect x="24" y="36" width="1" height="1" fill="#FFCBD7" />
<rect x="25" y="36" width="1" height="1" fill="#FFCBD7" />
<rect x="26" y="36" width="1" height="1" fill="#FFCBD7" />
<rect x="27" y="36" width="1" height="1" fill="#FFCBD7" />
<rect x="28" y="36" width="1" height="1" fill="#FFCBD7" />
<rect x="29" y="36" width="1" height="1" fill="#FFCBD7" />
<rect x="30" y="36" width="1" height="1" fill="#FFCBD7" />
<rect x="31" y="36" width="1" height="1" fill="#FFCBD7" />
<rect x="32" y="36" width="1" height="1" fill="#FFCBD7" />
<rect x="33" y="36" width="1" height="1" fill="#FFCBD7" />
<rect x="34" y="36" width="1" height="1" fill="#FFCBD7" />
<rect x="35" y="36" width="1" height="1" fill="#FFCBD7" />
<rect x="36" y="36" width="1" height="1" fill="#FFCBD7" />
<rect x="37" y="36" width="1" height="1" fill="#FFCBD7" />
<rect x="38" y="36" width="1" height="1" fill="#FFCBD7" />
<rect x="39" y="36" width="1" height="1" fill="#FFCBD7" />
<rect x="40" y="36" width="1" height="1" fill="#FFCBD7" />
<rect x="23" y="37" width="1" height="1" fill="#FFCBD7" />
<rect x="24" y="37" width="1" height="1" fill="#FFCBD7" />
<rect x="25" y="37" width="1" height="1" fill="#FFCBD7" />
<rect x="26" y="37" width="1" height="1" fill="#FFCBD7" />
<rect x="27" y="37" width="1" height="1" fill="#FFCBD7" />
<rect x="28" y="37" width="1" height="1" fill="#FFCBD7" />
<rect x="29" y="37" width="1" height="1" fill="#FFCBD7" />
<rect x="30" y="37" width="1" height="1" fill="#FFCBD7" />
<rect x="31" y="37" width="1" height="1" fill="#FFCBD7" />
<rect x="32" y="37" width="1" height="1" fill="#FFCBD7" />
<rect x="33" y="37" width="1" height="1" fill="#FFCBD7" />
<rect x="34" y="37" width="1" height="1" fill="#FFCBD7" />
<rect x="35" y="37" width="1" height="1" fill="#FFCBD7" />
<rect x="36" y="37" width="1" height="1" fill="#FFCBD7" />
<rect x="37" y="37" width="1" height="1" fill="#FFCBD7" />
<rect x="38" y="37" width="1" height="1" fill="#FFCBD7" />
<rect x="39" y="37" width="1" height="1" fill="#FFCBD7" />
<rect x="40" y="37" width="1" height="1" fill="#FFCBD7" />
<rect x="23" y="38" width="1" height="1" fill="#FFDECC" />
<rect x="24" y="38" width="1" height="1" fill="#FFDECC" />
<rect x="25" y="38" width="1" height="1" fill="#FFDECC" />
<rect x="26" y="38" width="1" height="1" fill="#C3DEEB" />
<rect x="27" y="38" width="1" height="1" fill="#C3DEEB" />
<rect x="28" y="38" width="1" height="1" fill="#C3DEEB" />
<rect x="29" y="38" width="1" height="1" fill="#C3DEEB" />
<rect x="30" y="38" width="1" height="1" fill="#C3DEEB" />
<rect x="31" y="38" width="1" height="1" fill="#C3DEEB" />
<rect x="32" y="38" width="1" height="1" fill="#C3DEEB" />
<rect x="33" y="38" width="1" height="1" fill="#C3DEEB" />
<rect x="34" y="38" width="1" height="1" fill="#C3DEEB" />
<rect x="35" y="38" width="1" height="1" fill="#C3DEEB" />
<rect x="36" y="38" width="1" height="1" fill="#C3DEEB" />
<rect x="37" y="38" width="1" height="1" fill="#C3DEEB" />
<rect x="38" y="38" width="1" height="1" fill="#FFDECC" />
<rect x="39" y="38" width="1" height="1" fill="#FFDECC" />
<rect x="40" y="38" width="1" height="1" fill="#FFDECC" />
<rect x="23" y="39" width="1" height="1" fill="#FFDECC" />
<rect x="24" y="39" width="1" height="1" fill="#FFDECC" />
<rect x="25" y="39" width="1" height="1" fill="#FFDECC" />
<rect x="26" y="39" width="1" height="1" fill="#FFDECC" />
<rect x="27" y="39" width="1" height="1" fill="#87AFBB" />
<rect x="28" y="39" width="1" height="1" fill="#C3DEEB" />
<rect x="29" y="39" width="1" height="1" fill="#C3DEEB" />
<rect x="30" y="39" width="1" height="1" fill="#C3DEEB" />
<rect x="31" y="39" width="1" height="1" fill="#C3DEEB" />
<rect x="32" y="39" width="1" height="1" fill="#C3DEEB" />
<rect x="33" y="39" width="1" height="1" fill="#C3DEEB" />
<rect x="34" y="39" width="1" height="1" fill="#C3DEEB" />
<rect x="35" y="39" width="1" height="1" fill="#C3DEEB" />
<rect x="36" y="39" width="1" height="1" fill="#87AFBB" />
<rect x="37" y="39" width="1" height="1" fill="#FFDECC" />
<rect x="38" y="39" width="1" height="1" fill="#FFDECC" />
<rect x="39" y="39" width="1" height="1" fill="#FFDECC" />
<rect x="40" y="39" width="1" height="1" fill="#FFDECC" />
<rect x="23" y="40" width="1" height="1" fill="#FFDECC" />
<rect x="24" y="40" width="1" height="1" fill="#FFDECC" />
<rect x="25" y="40" width="1" height="1" fill="#FFDECC" />
<rect x="26" y="40" width="1" height="1" fill="#FFDECC" />
<rect x="27" y="40" width="1" height="1" fill="#87AFBB" />
<rect x="28" y="40" width="1" height="1" fill="#C3DEEB" />
<rect x="29" y="40" width="1" height="1" fill="#C3DEEB" />
<rect x="30" y="40" width="1" height="1" fill="#C3DEEB" />
<rect x="31" y="40" width="1" height="1" fill="#C3DEEB" />
<rect x="32" y="40" width="1" height="1" fill="#C3DEEB" />
<rect x="33" y="40" width="1" height="1" fill="#C3DEEB" />
<rect x="34" y="40" width="1" height="1" fill="#C3DEEB" />
<rect x="35" y="40" width="1" height="1" fill="#C3DEEB" />
<rect x="36" y="40" width="1" height="1" fill="#87AFBB" />
<rect x="37" y="40" width="1" height="1" fill="#FFDECC" />
<rect x="38" y="40" width="1" height="1" fill="#FFDECC" />
<rect x="39" y="40" width="1" height="1" fill="#FFDECC" />
<rect x="40" y="40" width="1" height="1" fill="#FFDECC" />
<rect x="24" y="41" width="1" height="1" fill="#FFDECC" />
<rect x="25" y="41" width="1" height="1" fill="#FFDECC" />
<rect x="26" y="41" width="1" height="1" fill="#FFDECC" />
<rect x="27" y="41" width="1" height="1" fill="#C3DEEB" />
<rect x="28" y="41" width="1" height="1" fill="#C3DEEB" />
<rect x="29" y="41" width="1" height="1" fill="#C3DEEB" />
<rect x="30" y="41" width="1" height="1" fill="#87AFBB" />
<rect x="31" y="41" width="1" height="1" fill="#C3DEEB" />
<rect x="32" y="41" width="1" height="1" fill="#C3DEEB" />
<rect x="33" y="41" width="1" height="1" fill="#87AFBB" />
<rect x="34" y="41" width="1" height="1" fill="#C3DEEB" />
<rect x="35" y="41" width="1" height="1" fill="#C3DEEB" />
<rect x="36" y="41" width="1" height="1" fill="#C3DEEB" />
<rect x="37" y="41" width="1" height="1" fill="#FFDECC" />
<rect x="38" y="41" width="1" height="1" fill="#FFDECC" />
<rect x="39" y="41" width="1" height="1" fill="#FFDECC" />
<rect x="26" y="42" width="1" height="1" fill="#87AFBB" />
<rect x="27" y="42" width="1" height="1" fill="#C3DEEB" />
<rect x="28" y="42" width="1" height="1" fill="#C3DEEB" />
<rect x="29" y="42" width="1" height="1" fill="#C3DEEB" />
<rect x="30" y="42" width="1" height="1" fill="#87AFBB" />
<rect x="31" y="42" width="1" height="1" fill="#C3DEEB" />
<rect x="32" y="42" width="1" height="1" fill="#C3DEEB" />
<rect x="33" y="42" width="1" height="1" fill="#87AFBB" />
<rect x="34" y="42" width="1" height="1" fill="#C3DEEB" />
<rect x="35" y="42" width="1" height="1" fill="#C3DEEB" />
<rect x="36" y="42" width="1" height="1" fill="#C3DEEB" />
<rect x="37" y="42" width="1" height="1" fill="#87AFBB" />
<rect x="26" y="43" width="1" height="1" fill="#87AFBB" />
<rect x="27" y="43" width="1" height="1" fill="#C3DEEB" />
<rect x="28" y="43" width="1" height="1" fill="#C3DEEB" />
<rect x="29" y="43" width="1" height="1" fill="#C3DEEB" />
<rect x="30" y="43" width="1" height="1" fill="#87AFBB" />
<rect x="31" y="43" width="1" height="1" fill="#C3DEEB" />
<rect x="32" y="43" width="1" height="1" fill="#C3DEEB" />
<rect x="33" y="43" width="1" height="1" fill="#87AFBB" />
<rect x="34" y="43" width="1" height="1" fill="#C3DEEB" />
<rect x="35" y="43" width="1" height="1" fill="#C3DEEB" />
<rect x="36" y="43" width="1" height="1" fill="#C3DEEB" />
<rect x="37" y="43" width="1" height="1" fill="#87AFBB" />
<rect x="26" y="44" width="1" height="1" fill="#C3DEEB" />
<rect x="27" y="44" width="1" height="1" fill="#C3DEEB" />
<rect x="28" y="44" width="1" height="1" fill="#C3DEEB" />
<rect x="29" y="44" width="1" height="1" fill="#C3DEEB" />
<rect x="30" y="44" width="1" height="1" fill="#87AFBB" />
<rect x="31" y="44" width="1" height="1" fill="#C3DEEB" />
<rect x="32" y="44" width="1" height="1" fill="#C3DEEB" />
<rect x="33" y="44" width="1" height="1" fill="#87AFBB" />
<rect x="34" y="44" width="1" height="1" fill="#C3DEEB" />
<rect x="35" y="44" width="1" height="1" fill="#C3DEEB" />
<rect x="36" y="44" width="1" height="1" fill="#C3DEEB" />
<rect x="37" y="44" width="1" height="1" fill="#C3DEEB" />
<rect x="25" y="45" width="1" height="1" fill="#87AFBB" />
<rect x="26" y="45" width="1" height="1" fill="#C3DEEB" />
<rect x="27" y="45" width="1" height="1" fill="#C3DEEB" />
<rect x="28" y="45" width="1" height="1" fill="#C3DEEB" />
<rect x="29" y="45" width="1" height="1" fill="#87AFBB" />
<rect x="30" y="45" width="1" height="1" fill="#C3DEEB" />
<rect x="31" y="45" width="1" height="1" fill="#C3DEEB" />
<rect x="32" y="45" width="1" height="1" fill="#C3DEEB" />
<rect x="33" y="45" width="1" height="1" fill="#C3DEEB" />
<rect x="34" y="45" width="1" height="1" fill="#87AFBB" />
<rect x="35" y="45" width="1" height="1" fill="#C3DEEB" />
<rect x="36" y="45" width="1" height="1" fill="#C3DEEB" />
<rect x="37" y="45" width="1" height="1" fill="#C3DEEB" />
<rect x="38" y="45" width="1" height="1" fill="#87AFBB" />
<rect x="25" y="46" width="1" height="1" fill="#87AFBB" />
<rect x="26" y="46" width="1" height="1" fill="#C3DEEB" />
<rect x="27" y="46" width="1" height="1" fill="#C3DEEB" />
<rect x="28" y="46" width="1" height="1" fill="#C3DEEB" />
<rect x="29" y="46" width="1" height="1" fill="#87AFBB" />
<rect x="30" y="46" width="1" height="1" fill="#C3DEEB" />
<rect x="31" y="46" width="1" height="1" fill="#C3DEEB" />
<rect x="32" y="46" width="1" height="1" fill="#C3DEEB" />
<rect x="33" y="46" width="1" height="1" fill="#C3DEEB" />
<rect x="34" y="46" width="1" height="1" fill="#87AFBB" />
<rect x="35" y="46" width="1" height="1" fill="#C3DEEB" />
<rect x="36" y="46" width="1" height="1" fill="#C3DEEB" />
<rect x="37" y="46" width="1" height="1" fill="#C3DEEB" />
<rect x="38" y="46" width="1" height="1" fill="#87AFBB" />
<rect x="25" y="47" width="1" height="1" fill="#87AFBB" />
<rect x="26" y="47" width="1" height="1" fill="#C3DEEB" />
<rect x="27" y="47" width="1" height="1" fill="#C3DEEB" />
<rect x="28" y="47" width="1" height="1" fill="#C3DEEB" />
<rect x="29" y="47" width="1" height="1" fill="#87AFBB" />
<rect x="30" y="47" width="1" height="1" fill="#C3DEEB" />
<rect x="31" y="47" width="1" height="1" fill="#C3DEEB" />
<rect x="32" y="47" width="1" height="1" fill="#C3DEEB" />
<rect x="33" y="47" width="1" height="1" fill="#C3DEEB" />
<rect x="34" y="47" width="1" height="1" fill="#87AFBB" />
<rect x="35" y="47" width="1" height="1" fill="#C3DEEB" />
<rect x="36" y="47" width="1" height="1" fill="#C3DEEB" />
<rect x="37" y="47" width="1" height="1" fill="#C3DEEB" />
<rect x="38" y="47" width="1" height="1" fill="#87AFBB" />
<rect x="25" y="48" width="1" height="1" fill="#C3DEEB" />
<rect x="26" y="48" width="1" height="1" fill="#C3DEEB" />
<rect x="27" y="48" width="1" height="1" fill="#C3DEEB" />
<rect x="28" y="48" width="1" height="1" fill="#C3DEEB" />
<rect x="29" y="48" width="1" height="1" fill="#C3DEEB" />
<rect x="30" y="48" width="1" height="1" fill="#C3DEEB" />
<rect x="31" y="48" width="1" height="1" fill="#C3DEEB" />
<rect x="32" y="48" width="1" height="1" fill="#C3DEEB" />
<rect x="33" y="48" width="1" height="1" fill="#C3DEEB" />
<rect x="34" y="48" width="1" height="1" fill="#C3DEEB" />
<rect x="35" y="48" width="1" height="1" fill="#C3DEEB" />
<rect x="36" y="48" width="1" height="1" fill="#C3DEEB" />
<rect x="37" y="48" width="1" height="1" fill="#C3DEEB" />
<rect x="38" y="48" width="1" height="1" fill="#C3DEEB" />
<rect x="28" y="49" width="1" height="1" fill="#FFDECC" />
<rect x="29" y="49" width="1" height="1" fill="#FFDECC" />
<rect x="30" y="49" width="1" height="1" fill="#FFDECC" />
<rect x="31" y="49" width="1" height="1" fill="#FFDECC" />
<rect x="32" y="49" width="1" height="1" fill="#FFDECC" />
<rect x="33" y="49" width="1" height="1" fill="#FFDECC" />
<rect x="34" y="49" width="1" height="1" fill="#FFDECC" />
<rect x="35" y="49" width="1" height="1" fill="#FFDECC" />
<rect x="28" y="50" width="1" height="1" fill="#FFDECC" />
<rect x="29" y="50" width="1" height="1" fill="#FFDECC" />
<rect x="30" y="50" width="1" height="1" fill="#FFDECC" />
<rect x="31" y="50" width="1" height="1" fill="#FFDECC" />
<rect x="32" y="50" width="1" height="1" fill="#FFDECC" />
<rect x="33" y="50" width="1" height="1" fill="#FFDECC" />
<rect x="34" y="50" width="1" height="1" fill="#FFDECC" />
<rect x="35" y="50" width="1" height="1" fill="#FFDECC" />
<rect x="28" y="51" width="1" height="1" fill="#FFDECC" />
<rect x="29" y="51" width="1" height="1" fill="#FFDECC" />
<rect x="30" y="51" width="1" height="1" fill="#FFDECC" />
<rect x="31" y="51" width="1" height="1" fill="#FFDECC" />
<rect x="32" y="51" width="1" height="1" fill="#FFDECC" />
<rect x="33" y="51" width="1" height="1" fill="#FFDECC" />
<rect x="34" y="51" width="1" height="1" fill="#FFDECC" />
<rect x="35" y="51" width="1" height="1" fill="#FFDECC" />
<rect x="28" y="52" width="1" height="1" fill="#FFDECC" />
<rect x="29" y="52" width="1" height="1" fill="#FFDECC" />
<rect x="30" y="52" width="1" height="1" fill="#FFDECC" />
<rect x="31" y="52" width="1" height="1" fill="#FFDECC" />
<rect x="32" y="52" width="1" height="1" fill="#FFDECC" />
<rect x="33" y="52" width="1" height="1" fill="#FFDECC" />
<rect x="34" y="52" width="1" height="1" fill="#FFDECC" />
<rect x="35" y="52" width="1" height="1" fill="#FFDECC" />
<rect x="28" y="53" width="1" height="1" fill="#C3DEEB" />
<rect x="29" y="53" width="1" height="1" fill="#C3DEEB" />
<rect x="30" y="53" width="1" height="1" fill="#C3DEEB" />
<rect x="31" y="53" width="1" height="1" fill="#C3DEEB" />
<rect x="32" y="53" width="1" height="1" fill="#C3DEEB" />
<rect x="33" y="53" width="1" height="1" fill="#C3DEEB" />
<rect x="34" y="53" width="1" height="1" fill="#C3DEEB" />
<rect x="35" y="53" width="1" height="1" fill="#C3DEEB" />
<rect x="28" y="54" width="1" height="1" fill="#C3DEEB" />
<rect x="29" y="54" width="1" height="1" fill="#C3DEEB" />
<rect x="30" y="54" width="1" height="1" fill="#C3DEEB" />
<rect x="31" y="54" width="1" height="1" fill="#C3DEEB" />
<rect x="32" y="54" width="1" height="1" fill="#C3DEEB" />
<rect x="33" y="54" width="1" height="1" fill="#C3DEEB" />
<rect x="34" y="54" width="1" height="1" fill="#C3DEEB" />
<rect x="35" y="54" width="1" height="1" fill="#C3DEEB" />
<rect x="28" y="55" width="1" height="1" fill="#FFF7F0" />
<rect x="29" y="55" width="1" height="1" fill="#FFF7F0" />
<rect x="30" y="55" width="1" height="1" fill="#FFF7F0" />
<rect x="31" y="55" width="1" height="1" fill="#FFF7F0" />
<rect x="32" y="55" width="1" height="1" fill="#FFF7F0" />
<rect x="33" y="55" width="1" height="1" fill="#FFF7F0" />
<rect x="34" y="55" width="1" height="1" fill="#FFF7F0" />
<rect x="35" y="55" width="1" height="1" fill="#FFF7F0" />
<rect x="28" y="56" width="1" height="1" fill="#FFF7F0" />
<rect x="29" y="56" width="1" height="1" fill="#FFF7F0" />
<rect x="30" y="56" width="1" height="1" fill="#FFF7F0" />
<rect x="31" y="56" width="1" height="1" fill="#FFF7F0" />
<rect x="32" y="56" width="1" height="1" fill="#FFF7F0" />
<rect x="33" y="56" width="1" height="1" fill="#FFF7F0" />
<rect x="34" y="56" width="1" height="1" fill="#FFF7F0" />
<rect x="35" y="56" width="1" height="1" fill="#FFF7F0" />
</svg>